<svg width="200" height="36" viewBox="0 0 200 36" fill="none" xmlns="http://www.w3.org/2000/svg">
<rect y="1" width="55" height="35" fill="#130B3A"/>
<path d="M12.4009 15.856C12.4009 14.512 12.1289 13.576 11.5849 13.048C11.0569 12.504 10.2249 12.232 9.08888 12.232H7.76888V28H3.97688V11.44H9.85688C14.0009 11.44 16.0729 12.864 16.0729 15.712C16.0729 17.616 14.6249 19 11.7289 19.864C14.8009 20.472 16.3369 22.104 16.3369 24.76V28H12.5449V23.944C12.5449 22.728 12.2969 21.8 11.8009 21.16C11.3049 20.52 10.6089 20.2 9.71288 20.2C9.45688 20.2 9.11288 20.216 8.68088 20.248V19.624C9.54488 19.592 10.3449 19.312 11.0809 18.784C11.9609 18.176 12.4009 17.2 12.4009 15.856ZM33.3437 28H29.5277V25.36C29.2237 26.24 28.7277 26.944 28.0397 27.472C27.3677 27.984 26.6157 28.24 25.7837 28.24C24.0557 28.24 22.6797 27.704 21.6557 26.632C20.6317 25.544 20.1197 24.024 20.1197 22.072V11.44H23.9117V23.272C23.9117 26.024 24.7197 27.4 26.3357 27.4C27.2317 27.4 27.9837 26.928 28.5917 25.984C29.1997 25.04 29.5037 23.872 29.5037 22.48V11.44H33.3437V28ZM48.0716 20.2C49.3036 20.984 49.9196 22.024 49.9196 23.32C49.9196 24.6 49.2476 25.744 47.9036 26.752C46.5756 27.744 45.0876 28.24 43.4396 28.24C41.7916 28.24 40.3756 27.824 39.1916 26.992C38.0076 26.144 37.4156 24.936 37.4156 23.368V23.104H40.4636V23.632C40.4636 24.704 40.7596 25.6 41.3516 26.32C41.9596 27.024 42.6956 27.376 43.5596 27.376C44.4396 27.376 45.1436 27.104 45.6716 26.56C46.2156 26 46.4876 25.232 46.4876 24.256C46.4876 23.52 45.9276 22.808 44.8076 22.12L40.0076 19.192C38.6796 18.392 38.0156 17.272 38.0156 15.832C38.0156 14.664 38.5596 13.6 39.6476 12.64C40.7356 11.68 42.0796 11.2 43.6796 11.2C44.5276 11.2 45.2716 11.328 45.9116 11.584C46.5676 11.84 47.0556 12.16 47.3756 12.544C47.9676 13.264 48.2636 13.864 48.2636 14.344V14.488H47.4476C47.4476 13.944 47.1436 13.4 46.5356 12.856C45.9436 12.312 45.2156 12.04 44.3516 12.04C43.5036 12.04 42.7756 12.304 42.1676 12.832C41.5596 13.36 41.2556 14.04 41.2556 14.872C41.2556 15.368 41.4236 15.792 41.7596 16.144C42.1116 16.496 42.5836 16.848 43.1756 17.2L48.0716 20.2Z" fill="#FF005C"/>
<path d="M63.1751 30.48H59.9111V15.72H63.1751V17.064C63.2711 16.68 63.5271 16.32 63.9431 15.984C64.3751 15.648 64.9031 15.48 65.5271 15.48C66.6791 15.48 67.6071 15.824 68.3111 16.512C69.0311 17.2 69.3911 18.12 69.3911 19.272V23.424C69.3911 24.608 69.0551 25.544 68.3831 26.232C67.7271 26.904 66.7751 27.24 65.5271 27.24C64.9511 27.24 64.4551 27.072 64.0391 26.736C63.6231 26.4 63.3351 26.024 63.1751 25.608V30.48ZM63.1751 18.984V23.712C63.1751 24.432 63.3511 25.072 63.7031 25.632C64.0551 26.192 64.4551 26.472 64.9031 26.472C65.3511 26.472 65.6631 26.296 65.8391 25.944C66.0151 25.592 66.1031 25.024 66.1031 24.24V18.456C66.1031 17.72 66.0151 17.16 65.8391 16.776C65.6791 16.392 65.3671 16.2 64.9031 16.2C64.4551 16.2 64.0551 16.496 63.7031 17.088C63.3511 17.68 63.1751 18.312 63.1751 18.984ZM81.1723 20.76H78.9163V18.552C78.9163 17.08 78.3083 16.344 77.0923 16.344V27H73.8283V15.72H76.9723C78.8123 15.72 80.0283 16.312 80.6203 17.496V15.96H81.1723V20.76ZM94.5251 23.232C94.5251 24.368 94.0851 25.32 93.2051 26.088C92.3251 26.856 91.1811 27.24 89.7731 27.24C88.3651 27.24 87.2211 26.856 86.3411 26.088C85.4611 25.32 85.0211 24.368 85.0211 23.232V19.464C85.0211 18.328 85.4611 17.384 86.3411 16.632C87.2211 15.864 88.3651 15.48 89.7731 15.48C91.1811 15.48 92.3251 15.864 93.2051 16.632C94.0851 17.384 94.5251 18.328 94.5251 19.464V23.232ZM91.2371 24.168V18.528C91.2371 16.976 90.7411 16.2 89.7491 16.2C88.7731 16.2 88.2851 16.976 88.2851 18.528V24.168C88.2851 25.736 88.7731 26.52 89.7491 26.52C90.7411 26.52 91.2371 25.736 91.2371 24.168ZM105.255 22.056C105.879 22.6 106.191 23.312 106.191 24.192C106.191 25.056 105.799 25.784 105.015 26.376C104.231 26.952 103.207 27.24 101.943 27.24C100.695 27.24 99.7833 26.928 99.2073 26.304C98.6473 25.664 98.3673 24.992 98.3673 24.288H99.0873C99.0873 24.944 99.3273 25.48 99.8073 25.896C100.303 26.312 100.799 26.52 101.295 26.52C101.807 26.52 102.255 26.368 102.639 26.064C103.039 25.744 103.239 25.344 103.239 24.864C103.239 24.384 102.991 23.912 102.495 23.448L99.4473 20.712C98.7753 20.104 98.4393 19.36 98.4393 18.48C98.4393 17.584 98.8153 16.864 99.5673 16.32C100.335 15.76 101.263 15.48 102.351 15.48C103.439 15.48 104.255 15.752 104.799 16.296C105.343 16.84 105.615 17.488 105.615 18.24H104.895V18.072C104.895 17.576 104.719 17.144 104.367 16.776C104.015 16.392 103.591 16.2 103.095 16.2C102.599 16.2 102.183 16.344 101.847 16.632C101.511 16.92 101.343 17.312 101.343 17.808C101.343 18.288 101.567 18.736 102.015 19.152L105.255 22.056ZM114.315 26.04C114.635 26.04 114.891 25.784 115.083 25.272L115.539 25.344C115.539 25.504 115.475 25.712 115.347 25.968C115.235 26.208 115.099 26.408 114.939 26.568C114.523 27.016 113.899 27.24 113.067 27.24C111.355 27.24 110.499 26.448 110.499 24.864V16.416H109.443V15.72H110.499V11.64H113.763V15.72H115.491V16.416H113.763V25.224C113.763 25.768 113.947 26.04 114.315 26.04ZM123.188 26.04C123.508 26.04 123.764 25.784 123.956 25.272L124.412 25.344C124.412 25.504 124.348 25.712 124.22 25.968C124.108 26.208 123.972 26.408 123.812 26.568C123.396 27.016 122.772 27.24 121.94 27.24C120.228 27.24 119.372 26.448 119.372 24.864V15.72H122.636V25.224C122.636 25.768 122.82 26.04 123.188 26.04ZM122.156 10.776C122.492 11.16 122.66 11.584 122.66 12.048C122.66 12.512 122.492 12.944 122.156 13.344C121.836 13.744 121.46 13.944 121.028 13.944C120.596 13.944 120.212 13.744 119.876 13.344C119.54 12.944 119.372 12.512 119.372 12.048C119.372 11.584 119.532 11.16 119.852 10.776C120.188 10.392 120.572 10.2 121.004 10.2C121.452 10.2 121.836 10.392 122.156 10.776ZM131.813 26.04C132.133 26.04 132.389 25.784 132.581 25.272L133.037 25.344C133.037 25.504 132.973 25.712 132.845 25.968C132.733 26.208 132.597 26.408 132.437 26.568C132.021 27.016 131.397 27.24 130.565 27.24C128.853 27.24 127.997 26.448 127.997 24.864V16.416H126.941V15.72H127.997V11.64H131.261V15.72H132.989V16.416H131.261V25.224C131.261 25.768 131.445 26.04 131.813 26.04ZM146.902 26.04C147.222 26.04 147.478 25.784 147.67 25.272L148.126 25.344C148.126 25.504 148.062 25.712 147.934 25.968C147.822 26.208 147.686 26.408 147.526 26.568C147.11 27.016 146.486 27.24 145.654 27.24C144.166 27.24 143.326 26.656 143.134 25.488L143.086 25.608C142.654 26.696 141.846 27.24 140.662 27.24C139.478 27.24 138.55 26.904 137.878 26.232C137.206 25.544 136.87 24.616 136.87 23.448V15.72H140.134V24.504C140.134 25.144 140.254 25.624 140.494 25.944C140.75 26.248 141.086 26.4 141.502 26.4C141.934 26.4 142.302 26.136 142.606 25.608C142.926 25.064 143.086 24.44 143.086 23.736V15.72H146.35V25.224C146.35 25.768 146.534 26.04 146.902 26.04ZM155.523 26.04C155.843 26.04 156.099 25.784 156.291 25.272L156.747 25.344C156.747 25.504 156.683 25.712 156.555 25.968C156.443 26.208 156.307 26.408 156.147 26.568C155.731 27.016 155.107 27.24 154.275 27.24C152.563 27.24 151.707 26.448 151.707 24.864V16.416H150.651V15.72H151.707V11.64H154.971V15.72H156.699V16.416H154.971V25.224C154.971 25.768 155.155 26.04 155.523 26.04ZM168.836 24.504V27H165.788V23.64C165.788 23.128 165.676 22.68 165.452 22.296C165.228 21.912 164.924 21.656 164.54 21.528L163.844 21.408V27H160.58V10.44H163.844V19.584L166.916 15.72H168.764L164.708 20.832C165.924 20.992 166.916 21.416 167.684 22.104C168.452 22.776 168.836 23.576 168.836 24.504ZM176.86 26.04C177.18 26.04 177.436 25.784 177.628 25.272L178.084 25.344C178.084 25.504 178.02 25.712 177.892 25.968C177.78 26.208 177.644 26.408 177.484 26.568C177.068 27.016 176.444 27.24 175.612 27.24C173.9 27.24 173.044 26.448 173.044 24.864V15.72H176.308V25.224C176.308 25.768 176.492 26.04 176.86 26.04ZM175.828 10.776C176.164 11.16 176.332 11.584 176.332 12.048C176.332 12.512 176.164 12.944 175.828 13.344C175.508 13.744 175.132 13.944 174.7 13.944C174.268 13.944 173.884 13.744 173.548 13.344C173.212 12.944 173.044 12.512 173.044 12.048C173.044 11.584 173.204 11.16 173.524 10.776C173.86 10.392 174.244 10.2 174.676 10.2C175.124 10.2 175.508 10.392 175.828 10.776ZM187.741 22.056C188.365 22.6 188.677 23.312 188.677 24.192C188.677 25.056 188.285 25.784 187.501 26.376C186.717 26.952 185.693 27.24 184.429 27.24C183.181 27.24 182.269 26.928 181.693 26.304C181.133 25.664 180.853 24.992 180.853 24.288H181.573C181.573 24.944 181.813 25.48 182.293 25.896C182.789 26.312 183.285 26.52 183.781 26.52C184.293 26.52 184.741 26.368 185.125 26.064C185.525 25.744 185.725 25.344 185.725 24.864C185.725 24.384 185.477 23.912 184.981 23.448L181.933 20.712C181.261 20.104 180.925 19.36 180.925 18.48C180.925 17.584 181.301 16.864 182.053 16.32C182.821 15.76 183.749 15.48 184.837 15.48C185.925 15.48 186.741 15.752 187.285 16.296C187.829 16.84 188.101 17.488 188.101 18.24H187.381V18.072C187.381 17.576 187.205 17.144 186.853 16.776C186.501 16.392 186.077 16.2 185.581 16.2C185.085 16.2 184.669 16.344 184.333 16.632C183.997 16.92 183.829 17.312 183.829 17.808C183.829 18.288 184.053 18.736 184.501 19.152L187.741 22.056Z" fill="white"/>
<rect x="54.5" y="0.5" width="145" height="35" stroke="#130B3A"/>
</svg>
