<?xml version="1.0" standalone="no"?>
<!DOCTYPE svg PUBLIC "-//W3C//DTD SVG 20010904//EN"
 "http://www.w3.org/TR/2001/REC-SVG-20010904/DTD/svg10.dtd">
<svg version="1.0" xmlns="http://www.w3.org/2000/svg"
 width="200.000000pt" height="200.000000pt" viewBox="0 0 200.000000 200.000000"
 preserveAspectRatio="xMidYMid meet">
<metadata>
Created by potrace 1.14, written by Peter Selinger 2001-2017
</metadata>
<g transform="translate(0.000000,200.000000) scale(0.100000,-0.100000)"
fill="#000000" stroke="none">
<path d="M58 1684 c-59 -31 -58 -24 -58 -604 0 -477 2 -536 17 -567 30 -64 17
-63 688 -63 l605 0 0 39 0 40 -335 -2 c-184 -1 -335 -2 -335 -2 0 0 7 18 15
40 28 78 16 163 -40 299 -6 14 -5 17 3 12 7 -4 33 -10 58 -13 69 -8 165 21
226 70 46 36 57 40 102 38 41 -1 56 -7 81 -31 37 -36 105 -66 165 -74 52 -7
65 -1 73 36 18 71 107 131 190 127 l52 -3 17 44 c32 85 19 191 -34 269 -18 25
-64 80 -103 121 -94 100 -131 150 -118 158 21 13 572 7 585 -6 9 -9 12 -115
13 -399 1 -214 3 -391 4 -395 1 -7 55 -38 66 -38 3 0 5 187 5 415 0 456 0 459
-60 490 -43 22 -1841 22 -1882 -1z m619 -71 c6 -16 -40 -86 -69 -105 -53 -35
-156 -146 -179 -193 -19 -41 -24 -66 -24 -135 0 -104 24 -161 97 -231 26 -25
48 -49 48 -53 0 -5 9 -20 19 -35 30 -41 62 -147 62 -205 1 -28 -6 -69 -14 -89
-18 -43 13 -39 -306 -38 -135 0 -218 4 -225 11 -12 12 -17 1036 -4 1062 11 23
16 23 322 23 193 -1 271 -4 273 -12z m615 -30 c13 -23 61 -83 108 -134 81 -88
115 -128 108 -130 -2 0 -25 -3 -53 -5 -180 -16 -320 -96 -382 -218 -22 -43
-27 -47 -35 -32 -6 10 -12 44 -15 77 -5 52 -2 66 27 125 17 36 38 68 46 71 8
3 14 16 14 29 0 21 -2 22 -24 13 -13 -6 -34 -29 -47 -50 -48 -78 -46 -77 -59
-45 -13 34 -68 106 -81 106 -22 0 -20 -33 4 -58 63 -68 86 -158 61 -243 l-15
-50 -30 60 c-68 136 -202 205 -426 220 -7 1 -13 4 -13 9 1 12 61 75 132 136
45 38 76 75 93 110 l25 51 270 0 270 0 22 -42z m-278 -549 c9 -23 8 -24 -14
-24 -11 0 -20 2 -20 4 0 12 13 36 20 36 4 0 11 -7 14 -16z"/>
<path d="M1457 898 c-29 -23 -33 -59 -32 -311 1 -270 0 -268 61 -286 28 -8 50
3 245 115 118 69 222 134 232 145 36 44 11 97 -68 140 -22 12 -113 64 -202
115 -163 94 -201 107 -236 82z"/>
</g>
</svg>
