<svg width="103" height="103" viewBox="0 0 103 103" fill="none" xmlns="http://www.w3.org/2000/svg">
<rect width="103" height="103" rx="11" fill="url(#paint0_linear_2249_1164)"/>
<path d="M79.3999 19.9228V11H23.7503V19.9228H6V27.5023C6 39.9756 14.4436 51.0094 26.5328 54.2716L31.618 55.6149C32.3857 56.766 33.249 57.8215 34.2087 58.8769C37.375 62.139 41.2127 64.2498 45.6267 65.3054V73.9403C45.6267 79.7931 40.9251 84.4949 35.0721 84.4949V91.3075H67.9821V84.4949C62.1293 84.4949 57.4275 79.7933 57.4275 73.9403V65.3054C61.8415 64.3457 65.679 62.2347 68.8455 58.8769C69.8052 57.9172 70.6686 56.7661 71.4362 55.6149L76.5214 54.2716C88.6106 51.0096 97.0542 39.9753 97.0542 27.5023V19.9228H79.3999ZM13.4839 27.5023V27.4066H23.7506C23.8463 30.7651 24.2305 38.728 27.0127 46.5961C18.9533 43.7175 13.4839 36.138 13.4839 27.5025V27.5023ZM60.882 50.1459L51.5751 45.1572L42.2682 50.1459L44.1869 39.7836L36.511 32.4917L46.9691 31.0528L51.5744 21.5538L56.1797 31.0528L66.6378 32.4917L58.9618 39.7836L60.882 50.1459ZM89.6662 27.5023C89.6662 36.1372 84.1969 43.7176 76.1375 46.5958C78.9196 38.7278 79.3037 30.6684 79.3995 27.4063H89.6662V27.5023Z" fill="#E2AE5B"/>
<path d="M4.72 64V58.096H6.52V41.896H4.72V35.992H29.02V46.864H20.956V41.896H16.6V47.584H19.768V51.688H16.6V58.096H20.956V52.408H29.02V64H4.72ZM30.3841 64V58.096H32.1841V41.896H30.3841V35.992H45.5761V41.896H42.2641V58.096H45.5041V54.784H52.6681V64H30.3841ZM53.9036 64V58.096H55.7036V41.896H53.9036V35.992H67.5836V41.896H65.7836V58.096H67.5836V64H53.9036ZM95.8768 44.704H89.6848V41.896H87.3808V58.096H89.9008V64H74.7808V58.096H77.3008V41.896H74.9968V44.704H68.8048V35.992H95.8768V44.704Z" fill="#674600"/>
<defs>
<linearGradient id="paint0_linear_2249_1164" x1="52" y1="-8" x2="52" y2="130" gradientUnits="userSpaceOnUse">
<stop stop-color="#F0C573"/>
<stop offset="0.265625" stop-color="#FDDFA2"/>
<stop offset="0.494792" stop-color="#E8B75A"/>
<stop offset="0.708333" stop-color="#F8DA99"/>
<stop offset="0.921875" stop-color="#A48956"/>
</linearGradient>
</defs>
</svg>
