<svg width="115" height="118" viewBox="0 0 115 118" fill="none" xmlns="http://www.w3.org/2000/svg">
<rect x="6" y="6" width="103" height="103" rx="11" fill="url(#paint0_linear_2324_3)"/>
<rect x="1.5" y="1.5" width="112" height="112" rx="9.5" stroke="#8099CD" stroke-width="3"/>
<path d="M35.4079 51.3022L46.4514 59.1628L41.9958 72.729C41.693 73.6534 42.0163 74.6694 42.7995 75.2477C43.5861 75.826 44.6493 75.834 45.4423 75.2682L57.2588 66.8561L69.0754 75.2682C69.4681 75.5471 69.9246 75.6854 70.3817 75.6854C70.8507 75.6854 71.3203 75.5403 71.7176 75.2477C72.502 74.6694 72.8258 73.6545 72.5213 72.729L68.0674 59.1628L79.1086 51.3022C79.9078 50.733 80.2476 49.7142 79.9499 48.7806C79.6505 47.8471 78.783 47.213 77.8023 47.213L64.141 47.2136L59.4002 32.7839C59.0974 31.8596 58.2334 31.2334 57.26 31.2334C56.2878 31.2334 55.4243 31.8584 55.1197 32.7839L50.3789 47.2136H36.7143C35.7352 47.2136 34.866 47.8477 34.5683 48.7812C34.2706 49.7141 34.6087 50.733 35.4079 51.3022ZM52.0091 51.7194C52.983 51.7194 53.8464 51.0944 54.1494 50.1689L57.2601 40.7049L60.369 50.1689C60.6741 51.0933 61.5359 51.7194 62.5093 51.7194H70.7564L64.1048 56.4551C63.3011 57.0283 62.9636 58.0557 63.271 58.9926L66.1044 67.6199L58.5666 62.2559C58.1755 61.977 57.719 61.8369 57.2603 61.8369C56.8032 61.8369 56.3456 61.977 55.954 62.2559L48.4178 67.6199L51.2512 58.9926C51.5597 58.0557 51.2216 57.026 50.4173 56.4551L43.7658 51.7194H52.0091Z" fill="url(#paint1_linear_2324_3)" fill-opacity="0.5"/>
<path d="M57.2592 96.9531C79.4325 96.9531 97.469 78.9151 97.469 56.7446C97.469 34.5728 79.4311 16.5348 57.2592 16.5348C35.0888 16.5348 17.0508 34.5728 17.0508 56.7446C17.0508 78.9151 35.0888 96.9531 57.2592 96.9531ZM57.2592 21.0432C76.9466 21.0432 92.9621 37.0586 92.9621 56.7461C92.9621 76.4306 76.9466 92.4476 57.2592 92.4476C37.5746 92.4476 21.5577 76.4321 21.5577 56.7461C21.5577 37.0586 37.5732 21.0432 57.2592 21.0432Z" fill="url(#paint2_linear_2324_3)" fill-opacity="0.5"/>
<path d="M12.08 50H14.32C15.6533 50 16.7133 50.18 17.5 50.54C18.2867 50.8867 18.86 51.3467 19.22 51.92C19.5933 52.4933 19.8 53.1267 19.84 53.82C19.88 54.5533 19.7667 55.22 19.5 55.82C19.2467 56.42 18.88 56.92 18.4 57.32C17.9333 57.72 17.4 58.0067 16.8 58.18C16.2 58.34 15.5733 58.3667 14.92 58.26C14.2667 58.14 13.6333 57.86 13.02 57.42V57.22C13.02 57.22 13.08 57.2133 13.2 57.2C13.3333 57.1733 13.5 57.12 13.7 57.04C13.9 56.96 14.1067 56.84 14.32 56.68C14.5467 56.52 14.76 56.2933 14.96 56C15.16 55.6933 15.3133 55.3133 15.42 54.86C15.4733 54.66 15.5067 54.4533 15.52 54.24C15.5467 54.0267 15.5533 53.8333 15.54 53.66C15.5133 52.8467 15.28 52.2 14.84 51.72C14.4133 51.24 13.8133 51 13.04 51H12.28C12.28 51 12.26 50.92 12.22 50.76C12.1933 50.5867 12.16 50.42 12.12 50.26C12.0933 50.0867 12.08 50 12.08 50ZM12.34 50V64H8.24V50H12.34ZM8.3 62.54V64H6.7V63.8C6.72667 63.8 6.77333 63.8 6.84 63.8C6.90667 63.8 6.94667 63.8 6.96 63.8C7.30667 63.8 7.6 63.68 7.84 63.44C8.09333 63.1867 8.22667 62.8867 8.24 62.54H8.3ZM8.3 51.46H8.24C8.24 51.1133 8.11333 50.82 7.86 50.58C7.60667 50.3267 7.30667 50.2 6.96 50.2C6.94667 50.2 6.90667 50.2 6.84 50.2C6.78667 50.2 6.74667 50.2 6.72 50.2L6.7 50H8.3V51.46ZM12.28 62.54H12.34C12.3533 62.8867 12.48 63.1867 12.72 63.44C12.9733 63.68 13.2733 63.8 13.62 63.8C13.6467 63.8 13.6933 63.8 13.76 63.8C13.8267 63.8 13.8667 63.8 13.88 63.8V64H12.28V62.54ZM25.8006 52H27.6606C28.1673 52 28.6873 52.0467 29.2206 52.14C29.754 52.22 30.2473 52.3733 30.7006 52.6C31.154 52.8267 31.5206 53.16 31.8006 53.6C32.0806 54.0267 32.2206 54.5933 32.2206 55.3C32.2206 55.7 32.1473 56.1267 32.0006 56.58C31.8673 57.0333 31.614 57.44 31.2406 57.8C30.8806 58.1467 30.354 58.38 29.6606 58.5C30.1673 58.6333 30.614 58.8867 31.0006 59.26C31.3873 59.6333 31.6673 59.9733 31.8406 60.28C31.934 60.44 32.034 60.64 32.1406 60.88C32.2606 61.1067 32.4006 61.36 32.5606 61.64C32.7206 61.92 32.9006 62.22 33.1006 62.54C33.354 62.9267 33.574 63.2133 33.7606 63.4C33.9473 63.5733 34.1273 63.6867 34.3006 63.74C34.474 63.78 34.6673 63.8 34.8806 63.8V64H32.5206C31.814 64 31.2006 63.9733 30.6806 63.92C30.1606 63.8533 29.694 63.68 29.2806 63.4C28.8806 63.1067 28.4873 62.6333 28.1006 61.98C27.954 61.7267 27.8273 61.4933 27.7206 61.28C27.6273 61.0533 27.5473 60.8333 27.4806 60.62C27.414 60.4067 27.354 60.1867 27.3006 59.96C27.2606 59.7333 27.214 59.5 27.1606 59.26C27.0673 58.7933 26.9473 58.4933 26.8006 58.36C26.654 58.2133 26.554 58.1333 26.5006 58.12V57.96C26.514 57.96 26.5273 57.96 26.5406 57.96C26.554 57.96 26.574 57.96 26.6006 57.96C26.814 57.96 27.0273 57.8933 27.2406 57.76C27.454 57.6267 27.6406 57.4067 27.8006 57.1C27.9606 56.78 28.0673 56.34 28.1206 55.78C28.1206 55.74 28.1273 55.6667 28.1406 55.56C28.154 55.4533 28.154 55.3133 28.1406 55.14C28.114 54.5667 28.014 54.1333 27.8406 53.84C27.6673 53.5333 27.4673 53.32 27.2406 53.2C27.0273 53.08 26.834 53.0133 26.6606 53C26.4873 52.9733 26.3873 52.96 26.3606 52.96C26.334 52.96 26.3006 52.96 26.2606 52.96C26.234 52.96 26.1273 52.96 25.9406 52.96C25.9273 52.96 25.9073 52.88 25.8806 52.72C25.8673 52.56 25.8473 52.4 25.8206 52.24C25.8073 52.08 25.8006 52 25.8006 52ZM25.9606 52V64H22.0206V52H25.9606ZM22.0806 62.76L22.0606 64H20.7806V63.8C20.8073 63.8 20.834 63.8 20.8606 63.8C20.9006 63.8 20.9473 63.8 21.0006 63.8C21.2673 63.8 21.5006 63.7 21.7006 63.5C21.914 63.3 22.0206 63.0533 22.0206 62.76H22.0806ZM22.0806 53.24H22.0206C22.0206 52.9333 21.9206 52.6867 21.7206 52.5C21.5206 52.3 21.2873 52.2 21.0206 52.2C20.9673 52.2 20.9206 52.2 20.8806 52.2C20.8406 52.2 20.8073 52.2 20.7806 52.2V52H22.0606L22.0806 53.24ZM25.9206 62.76H25.9606C25.9606 63.1067 26.0806 63.3667 26.3206 63.54C26.5606 63.7133 26.794 63.8 27.0206 63.8C27.0206 63.8 27.0406 63.8 27.0806 63.8C27.1206 63.8 27.1606 63.8 27.2006 63.8V64H25.9406L25.9206 62.76ZM39.2953 52V64H35.3753V52H39.2953ZM43.5153 63.08L44.3153 64H39.2553V63.08H43.5153ZM43.0153 57.62V58.56H39.2553V57.62H43.0153ZM43.8953 52V52.92H39.2553V52H43.8953ZM44.9153 59.8L44.3553 64H40.6353L41.2153 63.08C41.7353 63.08 42.2286 62.9533 42.6953 62.7C43.1753 62.4333 43.5953 62.06 43.9553 61.58C44.3153 61.0867 44.5753 60.4933 44.7353 59.8H44.9153ZM43.0153 58.52V60.68H42.8153V60.6C42.8153 60.0133 42.6286 59.5333 42.2553 59.16C41.8953 58.7733 41.422 58.5733 40.8353 58.56V58.52H43.0153ZM43.0153 55.52V57.66H40.8353V57.62C41.422 57.6067 41.8953 57.4067 42.2553 57.02C42.6286 56.6333 42.8153 56.1467 42.8153 55.56V55.52H43.0153ZM43.8953 52.88V55.48H43.6953V55.38C43.6953 54.6067 43.4953 54.0067 43.0953 53.58C42.6953 53.1533 42.1153 52.9333 41.3553 52.92V52.88H43.8953ZM43.8953 51.7V52.18L41.9153 52C42.2753 52 42.6553 51.9667 43.0553 51.9C43.4686 51.82 43.7486 51.7533 43.8953 51.7ZM35.4353 62.76L35.4153 64H34.1153V63.8C34.1153 63.8 34.1486 63.8 34.2153 63.8C34.282 63.8 34.322 63.8 34.3353 63.8C34.6153 63.8 34.8553 63.7 35.0553 63.5C35.2686 63.3 35.3753 63.0533 35.3753 62.76H35.4353ZM35.4353 53.26H35.3753C35.3753 52.9533 35.2686 52.7 35.0553 52.5C34.8553 52.3 34.6153 52.2 34.3353 52.2C34.322 52.2 34.282 52.2 34.2153 52.2C34.1486 52.2 34.1153 52.2 34.1153 52.2V52H35.4153L35.4353 53.26ZM59.3792 51.76L59.5392 54.3L53.6992 62.42C53.6992 62.42 53.6326 62.5267 53.4992 62.74C53.3659 62.94 53.2392 63.1933 53.1192 63.5C52.9992 63.8067 52.9459 64.12 52.9592 64.44H52.7992L51.6992 62.56L59.3792 51.76ZM46.7192 62.76V64H44.8192V63.8C44.8326 63.8 44.8792 63.8 44.9592 63.8C45.0392 63.8 45.0792 63.8 45.0792 63.8C45.3992 63.8 45.6792 63.7133 45.9192 63.54C46.1592 63.3533 46.3059 63.0933 46.3592 62.76H46.7192ZM47.7592 63.04C47.7459 63.1467 47.7859 63.3 47.8792 63.5C47.9859 63.7 48.1659 63.8 48.4192 63.8H48.6992V64H47.4592L47.6592 63.04H47.7592ZM47.9192 51.76H48.0592L48.9192 54.16L47.6392 64H46.1992L47.9192 51.76ZM48.0592 51.76L54.2992 59.58L52.7992 64.44L47.5192 57.86L48.0592 51.76ZM59.5592 51.76L61.3192 64H57.2592L56.4592 58.5L59.3792 51.76H59.5592ZM60.7592 62.76H61.1392C61.2059 63.0933 61.3526 63.3533 61.5792 63.54C61.8192 63.7133 62.0859 63.8 62.3792 63.8C62.3792 63.8 62.4259 63.8 62.5192 63.8C62.6126 63.8 62.6592 63.8 62.6592 63.8V64H60.7592V62.76ZM57.1192 63.04H57.2192L57.4192 64H56.1792V63.8H56.4592C56.7392 63.8 56.9192 63.7067 56.9992 63.52C57.0926 63.32 57.1326 63.16 57.1192 63.04ZM67.8495 52V64H63.9295V52H67.8495ZM63.9895 62.76V64H62.6895V63.8C62.6895 63.8 62.7229 63.8 62.7895 63.8C62.8562 63.8 62.8962 63.8 62.9095 63.8C63.1762 63.8 63.4095 63.7 63.6095 63.5C63.8229 63.3 63.9295 63.0533 63.9295 62.76H63.9895ZM67.8095 62.76H67.8495C67.8629 63.0533 67.9695 63.3 68.1695 63.5C68.3695 63.7 68.6095 63.8 68.8895 63.8C68.8895 63.8 68.9229 63.8 68.9895 63.8C69.0562 63.8 69.0962 63.8 69.1095 63.8V64H67.8095V62.76ZM67.8095 53.24V52H69.0895V52.2C69.0895 52.2 69.0562 52.2 68.9895 52.2C68.9362 52.2 68.9029 52.2 68.8895 52.2C68.6095 52.2 68.3695 52.3 68.1695 52.5C67.9695 52.6867 67.8629 52.9333 67.8495 53.24H67.8095ZM63.9895 53.24H63.9295C63.9295 52.9333 63.8229 52.6867 63.6095 52.5C63.4095 52.3 63.1762 52.2 62.9095 52.2C62.8962 52.2 62.8562 52.2 62.7895 52.2C62.7229 52.2 62.6895 52.2 62.6895 52.2V52H63.9895V53.24ZM74.8775 52V59.54C74.8775 60.7133 75.1308 61.6333 75.6375 62.3C76.1575 62.9533 76.8775 63.28 77.7975 63.28C78.7042 63.28 79.4042 62.9733 79.8975 62.36C80.3908 61.7333 80.6442 60.8667 80.6575 59.76V52H82.2375V59.54C82.2375 61.0067 81.8042 62.16 80.9375 63C80.0708 63.8267 78.8175 64.24 77.1775 64.24C75.0042 64.24 73.4242 63.8267 72.4375 63C71.4508 62.1733 70.9575 61.0333 70.9575 59.58V52H74.8775ZM70.9975 52V53.02H70.9575C70.9575 52.7667 70.8708 52.56 70.6975 52.4C70.5242 52.24 70.3175 52.16 70.0775 52.16C70.0775 52.16 70.0308 52.16 69.9375 52.16C69.8575 52.16 69.8175 52.16 69.8175 52.16V52H70.9975ZM76.0175 52V52.16C76.0175 52.16 75.9708 52.16 75.8775 52.16C75.7842 52.16 75.7375 52.16 75.7375 52.16C75.4975 52.16 75.2908 52.24 75.1175 52.4C74.9575 52.56 74.8775 52.7667 74.8775 53.02H74.8375V52H76.0175ZM80.6975 52V53.02H80.6575C80.6442 52.7667 80.5508 52.56 80.3775 52.4C80.2175 52.24 80.0175 52.16 79.7775 52.16C79.7775 52.16 79.7308 52.16 79.6375 52.16C79.5575 52.16 79.5175 52.16 79.5175 52.16V52H80.6975ZM83.3775 52V52.16C83.3775 52.16 83.3308 52.16 83.2375 52.16C83.1575 52.16 83.1175 52.16 83.1175 52.16C82.8775 52.16 82.6708 52.24 82.4975 52.4C82.3242 52.56 82.2375 52.7667 82.2375 53.02H82.1975V52H83.3775ZM97.4456 51.76L97.6056 54.3L91.7656 62.42C91.7656 62.42 91.699 62.5267 91.5656 62.74C91.4323 62.94 91.3056 63.1933 91.1856 63.5C91.0656 63.8067 91.0123 64.12 91.0256 64.44H90.8656L89.7656 62.56L97.4456 51.76ZM84.7856 62.76V64H82.8856V63.8C82.899 63.8 82.9456 63.8 83.0256 63.8C83.1056 63.8 83.1456 63.8 83.1456 63.8C83.4656 63.8 83.7456 63.7133 83.9856 63.54C84.2256 63.3533 84.3723 63.0933 84.4256 62.76H84.7856ZM85.8256 63.04C85.8123 63.1467 85.8523 63.3 85.9456 63.5C86.0523 63.7 86.2323 63.8 86.4856 63.8H86.7656V64H85.5256L85.7256 63.04H85.8256ZM85.9856 51.76H86.1256L86.9856 54.16L85.7056 64H84.2656L85.9856 51.76ZM86.1256 51.76L92.3656 59.58L90.8656 64.44L85.5856 57.86L86.1256 51.76ZM97.6256 51.76L99.3856 64H95.3256L94.5256 58.5L97.4456 51.76H97.6256ZM98.8256 62.76H99.2056C99.2723 63.0933 99.419 63.3533 99.6456 63.54C99.8856 63.7133 100.152 63.8 100.446 63.8C100.446 63.8 100.492 63.8 100.586 63.8C100.679 63.8 100.726 63.8 100.726 63.8V64H98.8256V62.76ZM95.1856 63.04H95.2856L95.4856 64H94.2456V63.8H94.5256C94.8056 63.8 94.9856 63.7067 95.0656 63.52C95.159 63.32 95.199 63.16 95.1856 63.04ZM101.136 57.16H109.176V58.46H101.136V57.16ZM104.496 61.82V53.78H105.796V61.82H104.496Z" fill="#2A3053"/>
<defs>
<linearGradient id="paint0_linear_2324_3" x1="57.5" y1="6" x2="57.5" y2="109" gradientUnits="userSpaceOnUse">
<stop stop-color="#353A5E"/>
<stop offset="0.505208" stop-color="#9BBBF4"/>
<stop offset="1" stop-color="#353A5E"/>
</linearGradient>
<linearGradient id="paint1_linear_2324_3" x1="57.259" y1="31.2334" x2="57.259" y2="75.6871" gradientUnits="userSpaceOnUse">
<stop stop-color="#8C9CC7"/>
<stop offset="0.671875" stop-color="#212744"/>
<stop offset="1" stop-color="#627497"/>
</linearGradient>
<linearGradient id="paint2_linear_2324_3" x1="57.2599" y1="16.5348" x2="57.2599" y2="96.9531" gradientUnits="userSpaceOnUse">
<stop stop-color="#8C9CC7"/>
<stop offset="0.671875" stop-color="#212744"/>
<stop offset="1" stop-color="#627497"/>
</linearGradient>
</defs>
</svg>
