<svg width="121" height="121" viewBox="0 0 121 121" fill="none" xmlns="http://www.w3.org/2000/svg">
<rect x="7" y="9" width="103" height="103" rx="11" fill="url(#paint0_linear_2324_4)"/>
<path d="M80.0441 48.9088V52.453C80.0441 56.3704 76.8701 59.5444 72.9542 59.5444C69.0376 59.5444 65.8629 56.3704 65.8629 52.4538V45.8061L74.7259 34.7276L60.5447 17L46.362 34.7276L55.2266 45.8061V52.4538C55.2266 56.3711 52.0526 59.5451 48.1368 59.5451C44.2201 59.5451 41.0446 56.3711 41.0446 52.4538V48.9096L18 38.2726L28.6363 79.0437H92.454L103.09 38.2726L80.0441 48.9088Z" fill="#825842" fill-opacity="0.69"/>
<path d="M28.6362 84.3638H92.4539V95H28.6362V84.3638Z" fill="#825842" fill-opacity="0.69"/>
<path d="M35.36 73.52C35.6 73.4667 35.76 73.4133 35.84 73.36C35.92 73.3067 35.96 73.24 35.96 73.16C35.96 73.1067 35.8533 72.84 35.64 72.36C35.4267 71.8533 35.1467 71.2 34.8 70.4C34.48 69.6 34.0933 68.6933 33.64 67.68C33.1867 66.6667 32.72 65.6133 32.24 64.52C31.7867 63.4267 31.32 62.3467 30.84 61.28C30.36 60.2133 29.92 59.2267 29.52 58.32C29.12 57.4133 28.7733 56.6267 28.48 55.96C28.2133 55.2933 28.0267 54.8267 27.92 54.56C27.7333 54.1067 27.5867 53.8133 27.48 53.68C27.3733 53.5467 27.2133 53.4667 27 53.44V52.96H35.2V53.44C34.88 53.4667 34.6667 53.52 34.56 53.6C34.4533 53.68 34.4 53.7867 34.4 53.92C34.4 54 34.4533 54.1733 34.56 54.44C34.6933 54.68 34.9467 55.2133 35.32 56.04C35.72 56.8667 36.28 58.0667 37 59.64C37.7467 61.2133 38.7467 63.36 40 66.08C41.2 63.44 42.1467 61.3467 42.84 59.8C43.56 58.2267 44.1067 57.0267 44.48 56.2C44.88 55.3733 45.1333 54.8133 45.24 54.52C45.3467 54.2 45.4 53.9867 45.4 53.88C45.4 53.7467 45.36 53.6533 45.28 53.6C45.2 53.52 45.04 53.4667 44.8 53.44V52.96H51.68V53.44C51.52 53.4933 51.3867 53.5467 51.28 53.6C51.2 53.6533 51.1333 53.7733 51.08 53.96C51.0267 54.12 50.8667 54.5067 50.6 55.12C50.3333 55.7333 50 56.4933 49.6 57.4C49.2267 58.3067 48.8 59.32 48.32 60.44C47.8667 61.5333 47.3867 62.6533 46.88 63.8C46.4 64.9467 45.92 66.0667 45.44 67.16C44.9867 68.2533 44.5733 69.2267 44.2 70.08C43.8533 70.9333 43.5733 71.64 43.36 72.2C43.1467 72.76 43.04 73.0667 43.04 73.12C43.04 73.36 43.2267 73.48 43.6 73.48V74H35.36V73.52ZM56.3597 73.52C56.8664 73.4667 57.173 73.3867 57.2797 73.28C57.413 73.1467 57.4797 72.9867 57.4797 72.8V54.16C57.4797 53.9733 57.413 53.8267 57.2797 53.72C57.173 53.5867 56.8664 53.4933 56.3597 53.44V52.96H64.5997V53.44C64.093 53.4933 63.773 53.5867 63.6397 53.72C63.533 53.8267 63.4797 53.9733 63.4797 54.16V72.8C63.4797 72.9867 63.533 73.1467 63.6397 73.28C63.773 73.3867 64.093 73.4667 64.5997 73.52V74H56.3597V73.52ZM84.6666 62.04C85.7866 62.04 86.5999 61.8533 87.1066 61.48C87.6399 61.1067 87.9066 60.4933 87.9066 59.64C87.9066 58.8667 87.6399 58.3067 87.1066 57.96C86.5999 57.6133 85.7866 57.44 84.6666 57.44H78.5866V62.04H84.6666ZM78.5866 72.8C78.5866 72.9867 78.6399 73.1467 78.7466 73.28C78.8799 73.3867 79.1999 73.4667 79.7066 73.52V74H71.4666V73.52C71.9732 73.4667 72.2799 73.3867 72.3866 73.28C72.5199 73.1467 72.5866 72.9867 72.5866 72.8V54.16C72.5866 53.9733 72.5199 53.8267 72.3866 53.72C72.2799 53.5867 71.9732 53.4933 71.4666 53.44V52.96H85.7866C87.0399 52.96 88.1466 53.1467 89.1066 53.52C90.0666 53.8667 90.8666 54.3467 91.5066 54.96C92.1466 55.5733 92.6266 56.2933 92.9466 57.12C93.2666 57.92 93.4266 58.76 93.4266 59.64C93.4266 60.52 93.2666 61.3733 92.9466 62.2C92.6266 63 92.1466 63.7067 91.5066 64.32C90.8666 64.9067 90.0666 65.3867 89.1066 65.76C88.1466 66.1067 87.0399 66.28 85.7866 66.28H78.5866V72.8Z" fill="#482C1D"/>
<defs>
<linearGradient id="paint0_linear_2324_4" x1="58.5" y1="9" x2="58.5" y2="112" gradientUnits="userSpaceOnUse">
<stop stop-color="#8B6357"/>
<stop offset="0.286458" stop-color="#F9DBD2"/>
<stop offset="0.6875" stop-color="#9F796C"/>
<stop offset="0.890625" stop-color="#C5948F"/>
<stop offset="1" stop-color="#CFA69A"/>
</linearGradient>
</defs>
</svg>
