<svg viewBox="0 0 57 54" xmlns="http://www.w3.org/2000/svg" xmlns:xlink="http://www.w3.org/1999/xlink">
    <svg viewBox="0 0 28 25" id="addFile" xmlns="http://www.w3.org/2000/svg">
        <path
            d="M20.898 24.168c-1.78 0-3.626-.87-5.356-2.598L2.185 8.178A5.294 5.294 0 01.797 5.501C.62 4.503.702 3.02 2.102 1.62 3.537.184 4.966.058 5.912.205c1.366.212 2.348 1.07 2.707 1.43l13.416 13.447c.368.367 1.231 1.23 1.231 2.397 0 .712-.314 1.386-.934 2.005-.553.555-2.074 1.618-4.2-.505L4.736 5.595A.76.76 0 115.811 4.52l13.394 13.383c1.282 1.279 1.842.717 2.053.506.325-.324.489-.637.489-.93 0-.538-.531-1.068-.786-1.322L7.545 2.708c-.253-.253-.942-.858-1.865-1.001-.869-.135-1.712.197-2.502.988-.752.752-1.05 1.607-.883 2.54.144.812.61 1.514.966 1.869l13.356 13.391c1.532 1.53 4.559 3.645 7.607.598 1.397-1.398 1.833-2.858 1.331-4.466-.313-1.005-1.006-2.063-2.003-3.06l-11.655-11.6A.76.76 0 1112.968.888l11.656 11.602c1.171 1.171 1.994 2.444 2.38 3.683.465 1.49.546 3.74-1.707 5.993-1.337 1.337-2.844 2.001-4.4 2.001z"/>
    </svg>
    <svg viewBox="0 0 57 54" id="apparts" xmlns="http://www.w3.org/2000/svg">
        <path
            d="M34.78 17.563h3.993a.87.87 0 00.87-.87v-3.998a.87.87 0 00-.87-.87H34.78a.87.87 0 00-.87.87v3.998c0 .481.39.87.87.87zm.87-3.998h2.253v2.258H35.65v-2.258z"/>
        <path
            d="M42.497 17.563h3.993a.87.87 0 00.87-.87v-3.998a.87.87 0 00-.87-.87h-3.993a.87.87 0 00-.87.87v3.998c0 .481.39.87.87.87zm.87-3.998h2.253v2.258h-2.254v-2.258z"/>
        <path
            d="M34.78 24.898h3.993a.87.87 0 00.87-.87v-3.997a.87.87 0 00-.87-.87H34.78a.87.87 0 00-.87.87v3.997c0 .481.39.87.87.87zm.87-3.998h2.253v2.259H35.65V20.9z"/>
        <path
            d="M42.497 24.898h3.993a.87.87 0 00.87-.87v-3.997a.87.87 0 00-.87-.87h-3.993a.87.87 0 00-.87.87v3.997c0 .481.39.87.87.87zm.87-3.998h2.253v2.259h-2.254V20.9z"/>
        <path
            d="M38.773 32.232a.87.87 0 00.87-.87v-3.998a.87.87 0 00-.87-.87H34.78a.87.87 0 00-.87.87v3.998c0 .48.39.87.87.87h3.993zm-3.123-3.998h2.253v2.258H35.65v-2.258z"/>
        <path
            d="M42.497 32.232h3.993a.87.87 0 00.87-.87v-3.998a.87.87 0 00-.87-.87h-3.993a.87.87 0 00-.87.87v3.998c0 .48.39.87.87.87zm.87-3.998h2.253v2.258h-2.254v-2.258z"/>
        <path d="M42.838 43.33a.87.87 0 00-.87.87v2.473a.87.87 0 101.74 0v-2.474a.87.87 0 00-.87-.87z"/>
        <path
            d="M55.456 53.113a.87.87 0 100-1.74h-2.501V7.121a.87.87 0 00-.87-.87H50.68V1.757a.87.87 0 00-.87-.87H31.456a.87.87 0 00-.87.87v4.496h-1.403a.87.87 0 00-.87.87V27.06H5.985a.87.87 0 00-.786.496L1.721 34.86a.871.871 0 00.785 1.244h2.61v15.27H1.542a.87.87 0 100 1.739l53.913-.001zm-41.43-1.745h-3.33v-5.943c0-.916.749-1.66 1.669-1.66.934 0 1.661.755 1.661 1.66v5.943zm18.3-48.742h16.616v3.626H32.326V2.626zM30.054 7.99h21.161v43.38h-4.987V38.636a.87.87 0 00-.87-.87h-9.447a.87.87 0 00-.87.87V51.37h-4.987V7.99zm6.726 43.377V39.506h7.709v11.862H36.78zM6.535 28.8h21.778v5.565H3.884l2.65-5.565zm21.779 7.305v15.264H15.766v-5.943c0-1.853-1.498-3.4-3.4-3.4a3.408 3.408 0 00-3.408 3.4v5.942H6.856V36.105h21.458z"/>
        <path
            d="M17.583 48.443h9.2a.87.87 0 00.87-.87v-4.678a.87.87 0 00-.87-.87h-9.2a.87.87 0 00-.87.87v4.678c.001.48.39.87.87.87zm.87-4.679h7.461v2.94h-7.461v-2.94z"/>
        <defs>
            <linearGradient id="abpaint0_linear_705_1644" x1="36.776" y1="11.826" x2="36.776" y2="17.563"
                            gradientUnits="userSpaceOnUse">
                <stop stop-color="#4929E8"/>
                <stop offset="1" stop-color="#32ACFB"/>
            </linearGradient>
            <linearGradient id="abpaint1_linear_705_1644" x1="44.493" y1="11.826" x2="44.493" y2="17.563"
                            gradientUnits="userSpaceOnUse">
                <stop stop-color="#4929E8"/>
                <stop offset="1" stop-color="#32ACFB"/>
            </linearGradient>
            <linearGradient id="abpaint2_linear_705_1644" x1="36.776" y1="19.161" x2="36.776" y2="24.898"
                            gradientUnits="userSpaceOnUse">
                <stop stop-color="#4929E8"/>
                <stop offset="1" stop-color="#32ACFB"/>
            </linearGradient>
            <linearGradient id="abpaint3_linear_705_1644" x1="44.493" y1="19.161" x2="44.493" y2="24.898"
                            gradientUnits="userSpaceOnUse">
                <stop stop-color="#4929E8"/>
                <stop offset="1" stop-color="#32ACFB"/>
            </linearGradient>
            <linearGradient id="abpaint4_linear_705_1644" x1="36.776" y1="26.495" x2="36.776" y2="32.232"
                            gradientUnits="userSpaceOnUse">
                <stop stop-color="#4929E8"/>
                <stop offset="1" stop-color="#32ACFB"/>
            </linearGradient>
            <linearGradient id="abpaint5_linear_705_1644" x1="44.493" y1="26.495" x2="44.493" y2="32.232"
                            gradientUnits="userSpaceOnUse">
                <stop stop-color="#4929E8"/>
                <stop offset="1" stop-color="#32ACFB"/>
            </linearGradient>
            <linearGradient id="abpaint6_linear_705_1644" x1="42.838" y1="43.33" x2="42.838" y2="47.543"
                            gradientUnits="userSpaceOnUse">
                <stop stop-color="#4929E8"/>
                <stop offset="1" stop-color="#32ACFB"/>
            </linearGradient>
            <linearGradient id="abpaint7_linear_705_1644" x1="28.499" y1=".887" x2="28.499" y2="53.114"
                            gradientUnits="userSpaceOnUse">
                <stop stop-color="#4929E8"/>
                <stop offset="1" stop-color="#32ACFB"/>
            </linearGradient>
            <linearGradient id="abpaint8_linear_705_1644" x1="22.183" y1="42.025" x2="22.183" y2="48.443"
                            gradientUnits="userSpaceOnUse">
                <stop stop-color="#4929E8"/>
                <stop offset="1" stop-color="#32ACFB"/>
            </linearGradient>
        </defs>
    </svg>
    <svg viewBox="0 0 13 13" id="arrow-down" xmlns="http://www.w3.org/2000/svg">
        <path d="M11.917 4.333L6.5 9.75 1.083 4.333l.962-.961L6.5 7.827l4.455-4.455.962.961z"/>
    </svg>
    <svg viewBox="0 0 22 20" id="attach" xmlns="http://www.w3.org/2000/svg">
        <path
            d="M16.446 19.448c-1.406 0-2.863-.686-4.229-2.051L1.672 6.825A4.18 4.18 0 01.577 4.711c-.14-.787-.075-1.958 1.03-3.063C2.74.514 3.868.414 4.615.53c1.078.168 1.854.845 2.137 1.129l10.592 10.617c.29.29.971.97.971 1.892 0 .562-.248 1.094-.737 1.583-.437.438-1.637 1.277-3.316-.4L3.687 4.787a.6.6 0 11.848-.85L15.11 14.503c1.012 1.01 1.455.566 1.62.4.257-.256.387-.503.387-.735 0-.424-.42-.842-.62-1.043L5.903 2.506c-.2-.2-.744-.677-1.472-.79-.686-.107-1.352.156-1.976.78-.594.594-.828 1.268-.697 2.005.114.641.482 1.195.763 1.476l10.544 10.572c1.21 1.208 3.6 2.877 6.006.471 1.103-1.103 1.446-2.256 1.05-3.525-.247-.794-.794-1.629-1.58-2.415L9.338 1.92a.6.6 0 11.847-.85l9.202 9.16c.925.924 1.574 1.93 1.88 2.908.366 1.176.43 2.952-1.349 4.731-1.055 1.055-2.245 1.58-3.473 1.58z"/>
    </svg>
    <svg viewBox="0 0 39 28" id="bust" xmlns="http://www.w3.org/2000/svg">
        <path
            d="M25.44 10.486a3.84 3.84 0 103.834-3.734 3.771 3.771 0 00-3.834 3.734zm6.455 0a2.622 2.622 0 11-2.621-2.515 2.576 2.576 0 012.621 2.515z"/>
        <path d="M28.37 10.486a.911.911 0 10.904-.88.892.892 0 00-.905.88z"/>
        <path
            d="M6.382 19.141c.408.817 2.395 5.029 1.647 7.839-.078.322.11.65.427.748h.157a.629.629 0 00.591-.453c.673-2.514-.459-5.808-1.22-7.587A9.592 9.592 0 0019.5 13.522a9.591 9.591 0 0011.515 6.185c-.76 1.779-1.885 5.028-1.219 7.587a.629.629 0 00.59.452h.158a.628.628 0 00.427-.748c-.747-2.803 1.258-7.02 1.647-7.838a9.942 9.942 0 005.74-9.058c0-2.816-1.12-4.575-2.308-6.436A20.904 20.904 0 0134.347.617a.63.63 0 10-1.119.471 21.953 21.953 0 001.791 3.231c1.138 1.78 2.119 3.319 2.119 5.783a8.518 8.518 0 11-17.028 0 .629.629 0 00-1.22 0 8.618 8.618 0 01-8.517 8.7 8.611 8.611 0 01-8.51-8.7c0-2.458.98-4.004 2.118-5.783a21.957 21.957 0 001.791-3.23.628.628 0 10-1.119-.472A20.353 20.353 0 012.95 3.666C1.762 5.526.643 7.286.643 10.102a9.944 9.944 0 005.739 9.04z"/>
        <path
            d="M5.885 10.486a3.84 3.84 0 103.841-3.734 3.773 3.773 0 00-3.84 3.734zm6.462 0A2.621 2.621 0 119.726 7.97a2.576 2.576 0 012.621 2.515z"/>
        <path d="M10.63 10.486c0 .486-.405.88-.904.88a.893.893 0 01-.906-.88c0-.486.406-.88.906-.88s.905.394.905.88z"/>
    </svg>
    <svg viewBox="0 0 57 39" id="car" xmlns="http://www.w3.org/2000/svg">
        <path
            d="M17.284 21.499c-1.7-.197-6.333-.764-7.392-1.01a1.233 1.233 0 00-1.503 1.01 1.232 1.232 0 00.936 1.479c1.454.32 7.393 1.022 7.688 1.047h.136a1.235 1.235 0 00.147-2.464l-.012-.062z"/>
        <path
            d="M53.21 9.474l-4.165-.702c-1.096-1.38-4.927-6.062-7.305-7.725L41.604.96C40.138.197 29.543 0 28.176 0h-.074c-1.368 0-11.963.197-13.429.96l-.124.087C12.16 2.71 8.39 7.392 7.244 8.772l-4.239.702h.001A3.41 3.41 0 000 12.8a3.262 3.262 0 002.981 3.08h.247c-1.996 2.957-2.97 8.218-.998 16.09.06.34.261.64.554.825v2.108a3.13 3.13 0 003.117 3.129h5.568a3.13 3.13 0 003.08-3.092v-.321c3.45.173 7.86.284 13.553.308 5.691.025 10.066-.136 13.552-.308v.32a3.13 3.13 0 003.117 3.13h5.618a3.13 3.13 0 003.117-3.13v-2.107c.288-.174.486-.467.542-.8 1.983-7.885 1.01-13.158-.986-16.115h.271a3.268 3.268 0 002.957-3.08 3.425 3.425 0 00-3.08-3.363zM50.278 13.6a1.233 1.233 0 00-.702 2.28c2.464 1.576 4.14 6.85 2.143 15.166-1.762.665-10.263 1.343-23.617 1.417-13.355.074-21.856-.751-23.617-1.417-1.995-8.303-.382-13.553 2.143-15.167a1.232 1.232 0 00-.702-2.279c-.864.018-1.73-.032-2.587-.148-.554-.098-.9-.357-.9-.702 0-.344.308-.714.986-.85l4.337-.727a8.05 8.05 0 004.657 2.797c2.464.653 6.16.727 11.087.727h9.24c4.928 0 8.624-.074 11.088-.727a8.046 8.046 0 004.658-2.797l4.287.728c.727.135 1.048.529 1.035.85-.012.32-.345.603-.875.69v-.001a16.79 16.79 0 01-2.66.16h-.001zM28.102 2.514v-.001c4.115-.036 8.23.174 12.32.629a46.438 46.438 0 016.16 6.493 5.527 5.527 0 01-3.4 2.007c-2.563.677-7.084.665-12.801.653h-4.558c-5.717 0-10.238 0-12.8-.653a5.445 5.445 0 01-3.401-2.007 46.795 46.795 0 016.16-6.48 103.72 103.72 0 0112.32-.691v.05zM12.086 34.94c0 .362-.29.658-.654.665h-5.58a.665.665 0 01-.653-.665v-1.233c2.287.42 4.6.688 6.924.801l-.037.432zm38.88 0h.001c0 .362-.29.658-.653.665h-5.58a.665.665 0 01-.654-.665v-.457a52.65 52.65 0 006.924-.8l-.038 1.257z"/>
        <path
            d="M47.813 21.499a1.234 1.234 0 00-1.479-.924c-1.096.247-5.728.813-7.392 1.01a1.234 1.234 0 10.149 2.464h.098c.258 0 6.234-.726 7.688-1.047a1.234 1.234 0 00.936-1.503z"/>
        <path d="M33.03 27.4h-9.856a1.232 1.232 0 100 2.463h9.856a1.232 1.232 0 100-2.464z"/>
        <defs>
            <linearGradient id="afpaint0_linear_705_1669" x1="13.407" y1="20.455" x2="13.407" y2="24.027"
                            gradientUnits="userSpaceOnUse">
                <stop stop-color="#4929E9"/>
                <stop offset="1" stop-color="#31B1FC"/>
            </linearGradient>
            <linearGradient id="afpaint1_linear_705_1669" x1="28.145" y1="0" x2="28.145" y2="38.069"
                            gradientUnits="userSpaceOnUse">
                <stop stop-color="#4929E9"/>
                <stop offset="1" stop-color="#31B1FC"/>
            </linearGradient>
            <linearGradient id="afpaint2_linear_705_1669" x1="42.816" y1="20.543" x2="42.816" y2="24.052"
                            gradientUnits="userSpaceOnUse">
                <stop stop-color="#4929E9"/>
                <stop offset="1" stop-color="#31B1FC"/>
            </linearGradient>
            <linearGradient id="afpaint3_linear_705_1669" x1="28.102" y1="27.399" x2="28.102" y2="29.863"
                            gradientUnits="userSpaceOnUse">
                <stop stop-color="#4929E9"/>
                <stop offset="1" stop-color="#31B1FC"/>
            </linearGradient>
        </defs>
    </svg>
    <svg viewBox="0 0 50 50" id="cross" xmlns="http://www.w3.org/2000/svg">
        <path
            d="M7.719 6.281L6.28 7.72 23.563 25 6.28 42.281 7.72 43.72 25 26.437 42.281 43.72l1.438-1.438L26.437 25 43.72 7.719 42.28 6.28 25 23.563z"/>
    </svg>
    <svg viewBox="0 0 25 25" id="feedback" xmlns="http://www.w3.org/2000/svg">
        <path
            d="M20.675 4.4l.642-1.983a1.201 1.201 0 00-.4-1.325 1.184 1.184 0 00-1.359-.084l-5.5 3.392H3.333v14.767h18.334V4.4h-.992zM20 17.5H5V6.067h9.533L19.342 3.1l-.959 2.967H20V17.5z"/>
        <path
            d="M7.833 10.833a1.166 1.166 0 100 2.332 1.166 1.166 0 000-2.332zM12.5 10.833a1.166 1.166 0 100 2.333 1.166 1.166 0 000-2.333zM17.167 10.833a1.167 1.167 0 100 2.334 1.167 1.167 0 000-2.334z"/>
    </svg>
    <svg viewBox="0 0 20 34" id="hair" xmlns="http://www.w3.org/2000/svg">
        <path
            d="M6.6 21.77c-.418-.235-.92-.547-1.102-.717a7.232 7.232 0 01-.399-.418c-.929-.9-1.571-2.095-1.803-2.657l-.003-.013a3.702 3.702 0 01-.064-.157l-.049-.12-.019-.051c-.006-.016-.013-.032-.016-.045l-.012.007a.829.829 0 01-.09.048c-.01.003-.026.013-.045.016a.612.612 0 01-.302.052H2.68l-.02-.003c-.032-.007-.067-.013-.1-.023l-.016-.006a.545.545 0 01-.18-.087.985.985 0 01-.176-.141l-.01-.01c-.032-.029-.058-.077-.096-.144a2.14 2.14 0 00-.167-.267 1.088 1.088 0 00-.138-.16.767.767 0 00-.12-.11c-.247-.193-.36-.51-.436-.794-.033-.128-.061-.26-.093-.398-.02-.093-.042-.19-.065-.286a3.724 3.724 0 01-.053-.288v.01a13.156 13.156 0 00.388 3.007 14.413 14.413 0 00.718 2.16l.154.348.164.343.174.337.184.332a11.52 11.52 0 00.843 1.262c.155.2.318.394.488.582.171.187.35.367.535.54.092.086.19.167.285.251.096.081.198.158.296.237.101.077.205.149.308.223l.233.15c.391-.447.643-.968.797-1.502a6.18 6.18 0 00.215-1.4v-.001a3.092 3.092 0 01-.192-.108zM19.215 21.204a4.35 4.35 0 01-.137-.083l-.104-.068-.014-.01-.017-.012-.128-.099-.078-.072-.04-.038-.02-.018-.01-.01-.002-.002c.004.005 0 0 0 0l-.005-.005-.074-.082-.063-.08-.002-.001-.002-.003c-.026-.04-.056-.076-.08-.117-.022-.042-.047-.082-.065-.125a.844.844 0 01-.052-.132l-.011-.033-.005-.014-.004-.019-.017-.073c-.014-.05-.014-.093-.022-.14-.006-.046-.005-.094-.008-.142 0-.047.005-.095.007-.143l.019-.143.029-.13.001-.009.006-.017.01-.032.022-.064.042-.13.01-.032.012-.03.022-.059.117-.34v-.002l.001-.003.048-.22.012-.054c.005-.026.004-.04.006-.06l.01-.111c.008-.085.013-.15.008-.238-.005-.075-.011-.143-.02-.228l-.05-.223c-.01-.037-.014-.07-.032-.111l-.02-.053-.023-.055c-.03-.066-.056-.142-.095-.205-.035-.065-.071-.134-.114-.195l-.065-.096-.068-.089-.137-.177c-.101-.11-.2-.228-.306-.332l-.314-.32c-.093-.095-.186-.19-.277-.286a.833.833 0 01-.16-.375.634.634 0 01-.003-.112l.003-.03a.75.75 0 01.015-.094l.003-.016c.006-.025.015-.05.023-.075l.046-.046.118-.122.233-.247.002-.001.003-.003.22-.295c.082-.107.133-.207.199-.324.028-.055.06-.103.087-.165l.04-.092.009-.022.007-.02.08-.215.016-.043.004-.01.004-.014.002-.005.005-.023.02-.09.038-.18c.013-.076.024-.118.032-.194l.01-.185c.003-.06.006-.122.005-.188.001-.129-.015-.247-.022-.37a3.27 3.27 0 00-.063-.372l-.082-.36c-.024-.119-.07-.237-.105-.355a5.81 5.81 0 00-.117-.352l-.123-.347-.21-.583c.03-.124.184-.772.21-1.298.04-.773-.24-1.505-.543-2.189l-.013-.035c-.496-1.125-1.286-2.116-2.244-2.928v.001l-.003-.002C12.48 1.237 9.066.31 6.552 1.148l-.023.001v.006l-.003.001a4.754 4.754 0 00-1.435.771l-.004.003a4.602 4.602 0 00-.54.51 4.73 4.73 0 00-.91 1.534c-.804.561-1.492 1.427-1.995 2.31C.507 8.274.3 11.167 1.208 13.233l.045-.029a.253.253 0 01.227-.023l.296.19s.883.859.784.039c-.14-1.15-.02-2.727.477-4.077.333-.906 1.018-1.819 1.724-2.324l.007-.002c.116-.026.23-.05.342-.072l.082-.016c2.364-.438 4.113.066 5.316.938 1.34 1.01 1.838 2.397 1.948 2.755l.024.087s-.125 1.708-.212 2.272a3.349 3.349 0 01-.072.337c-.019.077-.04.154-.061.233a10.326 10.326 0 00-.156 4.412l-.009.025c-.086.26-.165.52-.228.788-.026.129-.054.264-.075.392-.022.14-.021.266-.03.394a1.489 1.489 0 00-.002.197l.012.187c.007.063.004.116.02.187.01.06.023.119.036.178.011.058.024.114.039.17.008.03.01.048.024.087l.03.077c.043.104.076.197.123.299l.01.018-.099.103c-.18.17-.665.47-1.076.7l-.048.03-.123.07c.017.43.07.89.193 1.34.175.655.491 1.292 1.028 1.806.188.18.405.342.65.486-.054.118-.108.238-.161.363-.525 1.244-.571 2.014-.281 2.577.094.19.226.358.391.511l.002.002c.158.148.344.283.557.413.16.098.336.194.524.292l.134.103.002.002.002.001.185.108.185.106c.068.035.135.074.198.112l.197.118.126.096.11.101.093.106c.027.039.055.078.08.117.018.042.042.076.058.124l.023.072.006.018.002.005.001.008.006.034.011.068.001.07c.004.046-.006.092-.012.138-.006.046-.023.09-.034.136v.004l-.001.003-.038.104-.051.109-.118.201-.118.16-.013.016-.017.02-.033.038-.066.077c-.045.05-.088.096-.134.144l-.142.14s.36-.105.596-.297a.296.296 0 00.02-.02l.16-.154.002-.001.003-.004.093-.108.047-.054.023-.027.012-.014.009-.01.005-.007.083-.117.078-.128c.028-.056.061-.11.084-.168.022-.06.048-.117.06-.183l.022-.096c.004-.031.005-.061.008-.092.002-.032.008-.056.005-.095v-.001c.87.986-.219 3.137-.27 3.234 1.48-1.945 1.753-2.292.84-4.22l.06-.035c.036-.02.072-.044.107-.067l.055-.034.055-.036.105-.072.053-.036c.017-.011.038-.029.053-.04l.2-.16h.001l.003-.003.173-.168c.03-.03.056-.052.088-.088l.08-.092c.054-.062.1-.128.149-.192.044-.068.093-.134.134-.206.036-.073.081-.141.111-.218.03-.077.07-.152.09-.23.02-.076.052-.153.065-.234.014-.08.039-.16.043-.241.007-.081.022-.161.021-.244 0-.081.004-.164 0-.245l-.022-.243-.039-.238c-.018-.083-.038-.157-.057-.237-.02-.084-.052-.154-.078-.232-.055-.15-.104-.305-.168-.453v-.002.008l-.003-.012-.001-.002-.004-.008-.157-.418.001.002-.079-.323-.005-.043c.044-.142.181-.595.264-.877a3.39 3.39 0 01.113-.318c.157-.384.367-.74.493-1.122l.001-.003.008.011.087.139c.024.048.05.095.073.143.019.05.044.1.06.149.013.052.034.096.043.153l.018.083.004.02.001.017.005.04a.977.977 0 01.01.16c.003.053-.003.106-.007.159-.004.053-.018.105-.025.159v.002l-.001.002-.027.114-.037.119-.002.007-.002.004-.017.043-.024.058-.046.113-.085.16-.01.02-.011.017-.025.04-.049.08c-.033.051-.066.099-.102.15l-.11.148s.35-.146.75-.73l.042-.081c.029-.055.05-.11.075-.165.02-.06.044-.116.06-.175.014-.061.035-.119.043-.181.009-.061.023-.125.024-.184.003-.058.01-.121.006-.183-.004-.061-.001-.123-.012-.184-.01-.06-.012-.122-.03-.181-.014-.06-.024-.122-.043-.18-.02-.058-.036-.111-.06-.173l-.07-.167-.085-.162c-.033-.058-.066-.102-.1-.155l-.12-.182a6.68 6.68 0 00.101-.643l.001-.006v-.001c.013-.111.021-.224.027-.339a.495.495 0 01.022.023c.04.035.077.072.121.107l.065.05c.03.024.047.032.071.049l.135.088.003.002.003.002.15.078.019.01s.017.009.022.01c.23.086.494.046.494.046l-.142-.078zm-2.166 6.459l-.003.113-.001.028-.004.025-.006.054-.014.108-.023.107c-.009.035-.014.071-.027.105l-.034.104c-.023.07-.057.135-.085.202v.002l-.001.002-.073.142-.086.144-.006.01-.004.005-.012.017-.025.034-.049.067-.096.133-.164.185-.02.023-.021.02-.045.043-.09.088c-.06.057-.12.11-.182.164l-.03.025-.025-.054c-.452-.93-.812-1.525-.627-2.088.166-.5.476-.912.763-1.313.065-.092.127-.183.187-.274.026.078.056.153.09.224.172.342.387.622.564.89.028.04.053.081.078.122l.001.003c.009.036.02.07.026.107.01.071.028.144.033.216.003.072.016.14.01.217z"/>
    </svg>
    <svg viewBox="0 0 28 28" id="instruction" xmlns="http://www.w3.org/2000/svg">
        <path
            d="M7.18 6.08h6.196a.656.656 0 100-1.313H7.179a.656.656 0 000 1.312zM7.18 8.453h9.994a.656.656 0 000-1.312H7.179a.656.656 0 100 1.312zM7.18 10.827h9.994a.656.656 0 100-1.313H7.179a.656.656 0 000 1.313zM7.18 13.2h9.994a.657.657 0 000-1.312H7.179a.656.656 0 100 1.313zM19.386 17.28a.656.656 0 00-.656.655v1.675a.657.657 0 001.312 0v-1.674a.656.656 0 00-.656-.657zM19.386 15.566a.656.656 0 00-.656.657v.26a.656.656 0 001.312 0v-.26a.656.656 0 00-.656-.657z"/>
        <path
            d="M19.729 13.94V1.15a.656.656 0 00-.656-.656H5.28a.656.656 0 00-.656.656v16.203c0 .172.067.337.188.46l2.86 2.91a.656.656 0 00.469.195h8.62a3.99 3.99 0 102.968-6.977zM18.416 1.807v12.24a3.99 3.99 0 00-2.644 5.56H8.797v-2.253a.655.655 0 00-.656-.656H5.936V1.807h12.48zM7.485 18.66l-.64-.65h.64v.65zm11.901 1.934a2.678 2.678 0 110-5.356 2.678 2.678 0 010 5.357z"/>
    </svg>
    <svg viewBox="0 0 14 19" id="location" xmlns="http://www.w3.org/2000/svg">
        <path
            d="M7 .96A6.047 6.047 0 00.952 7.008c0 1.305.422 2.803 1.133 3.801L7 18.24l4.915-7.43c.71-.998 1.133-2.476 1.133-3.801A6.047 6.047 0 007 .96zm0 8.352a2.31 2.31 0 01-2.304-2.304A2.31 2.31 0 017 4.704a2.31 2.31 0 012.304 2.304A2.31 2.31 0 017 9.312z"/>
    </svg>
    <svg viewBox="0 0 21 17" id="metro" xmlns="http://www.w3.org/2000/svg">
        <path
            d="M13.913 4.22l-3.348 6.913L7.26 4.22l-2.743 8.337H4.04v.929h2.787v-.886h-.432l1.36-3.736 2.463 4.622h.67l2.462-4.666 1.383 3.737h-.497v.929h2.851v-.929h-.497l-2.678-8.337z"/>
        <path
            d="M10.5.592a9.672 9.672 0 00-6.912 2.894C1.774 5.344.78 7.785.801 10.355c0 2.246.8 4.45 2.247 6.2a.389.389 0 00.324.15h2.851c2.182 0 4.99.022 7.322.022 1.901 0 3.5 0 4.212-.021a.41.41 0 00.324-.173 9.82 9.82 0 002.182-6.2c0-5.356-4.385-9.741-9.763-9.741zm7.02 15.25c-1.858.043-7.754.021-11.318 0H3.566a8.86 8.86 0 01.648-11.75C5.9 2.405 8.124 1.455 10.5 1.455c4.903 0 8.9 3.996 8.9 8.899 0 2.009-.649 3.91-1.88 5.486z"/>
    </svg>
    <svg viewBox="0 0 17 21" id="national" xmlns="http://www.w3.org/2000/svg">
        <path
            d="M14.151 7.306l2.47-4.152a.58.58 0 00-.499-.877h-5.239V1a.58.58 0 00-.58-.58h-8.97a.58.58 0 00-.58.58v19.082a.58.58 0 101.16 0V10.86h4.659v1.276c0 .32.26.58.58.58h8.97a.58.58 0 00.51-.858l-2.48-4.553zM1.913 1.581h7.81v8.12h-7.81v-8.12zm5.819 9.976v-.696h2.571c.32 0 .58-.26.58-.58V3.437h4.22l-2.118 3.56a.58.58 0 00-.01.575l2.171 3.985H7.732z"/>
    </svg>
    <svg viewBox="0 0 28 28" id="out" xmlns="http://www.w3.org/2000/svg">
        <path
            d="M20.263 14.663a.933.933 0 01-1.316-1.316l1.204-1.214h-9.884a.933.933 0 110-1.866h9.884l-1.213-1.204a.937.937 0 011.325-1.326l2.8 2.8a.933.933 0 010 1.316l-2.8 2.81z"/>
        <path
            d="M16.8 15.867a.933.933 0 01.933.933v2.8a.933.933 0 01-.933.933H5.6a.933.933 0 01-.933-.933V2.8a.933.933 0 01.933-.933h11.2a.933.933 0 01.933.933v2.8a.933.933 0 11-1.866 0V3.733H6.533v14.934h9.334V16.8a.933.933 0 01.933-.933z"/>
    </svg>
    <svg viewBox="0 0 22 22" id="pencil" xmlns="http://www.w3.org/2000/svg">
        <g clip-path="url(#aoclip0_701_24)">
            <path
                d="M16.531 0L2.625 13.906 0 22l8.094-2.625L22 5.469l-5.469-5.47zm3.646 5.469l-1.823 1.823-3.646-3.646 1.823-1.823 3.646 3.646zM3.479 15.452l3.069 3.069-1.377.447-2.139-2.14.447-1.376zm.623-1.2l9.694-9.695 1.368 1.368-9.695 9.694-1.367-1.367zm2.279 2.279l9.694-9.695 1.367 1.367-9.694 9.695-1.367-1.367zm-3.795 1.674l1.209 1.209-1.79.58.581-1.789z"/>
        </g>
        <defs>
            <clipPath id="aoclip0_701_24">
                <path d="M0 0h22v22H0z"/>
            </clipPath>
        </defs>
    </svg>
    <svg viewBox="0 0 20 31" id="phair" xmlns="http://www.w3.org/2000/svg">
        <path
            d="M15.666 7.347c.31 1.283.84 2.442 1.4 3.67 1.795 3.93 3.829 8.384-.173 19.273a.252.252 0 00.473.174c4.073-11.083 1.993-15.638.158-19.657-.55-1.204-1.07-2.342-1.369-3.578l-.082-.337c-.378-1.551-.651-2.672-.84-5.685a.252.252 0 00-.503.031c.191 3.058.47 4.197.854 5.774l.082.335zM8.64 26.202c.063 1.19.134 2.54.25 4.193.009.133.12.235.25.235h.019a.251.251 0 00.233-.27 224.627 224.627 0 01-.248-4.184c-.124-2.368-.203-3.864-.508-4.963.215.097.468.162.755.162.188 0 .393-.034.609-.099.215.065.42.1.608.1.287 0 .54-.066.756-.164-.305 1.1-.384 2.596-.508 4.964-.063 1.189-.134 2.537-.249 4.184a.252.252 0 00.234.27h.018a.252.252 0 00.25-.235c.117-1.652.188-3.002.25-4.193.263-5.01.31-5.912 2.668-7.52a.252.252 0 00-.102-.456.246.246 0 00-.1-.036.25.25 0 00.123-.203.252.252 0 00-.244-.26l-.469-.016a.248.248 0 00-.172-.439l-.39.013.18-.028a.252.252 0 00-.078-.498l-.468.074.207-.086a.251.251 0 10-.195-.465l-.418.175.204-.173a.252.252 0 00-.324-.385l-.677.57.537-.602a.252.252 0 10-.376-.335l-.71.795.633-.99a.252.252 0 10-.424-.272l-.246.385.064-.465a.252.252 0 10-.5-.069l-.092.674-.113-.576a.252.252 0 10-.495.097l.102.523-.347-.566a.252.252 0 10-.43.264l.629 1.022-.656-.813a.252.252 0 10-.392.317l.267.331-.408-.267a.252.252 0 00-.275.422l.644.422-.863-.446a.253.253 0 00-.231.448l1.335.69-1.57-.724a.252.252 0 10-.21.457l.98.453-.95-.355a.252.252 0 10-.176.472l.288.107-.35-.126a.252.252 0 00-.322.15.242.242 0 00-.01.119.248.248 0 00-.266.144c-.01.023-.012.047-.015.07a.25.25 0 00-.184.456c2.358 1.609 2.406 2.511 2.669 7.52zM2.87 30.63a.252.252 0 00.236-.34c-4.002-10.888-1.967-15.343-.173-19.273.56-1.228 1.09-2.386 1.4-3.67l.082-.336c.385-1.576.663-2.715.854-5.773a.252.252 0 10-.503-.032c-.189 3.014-.462 4.135-.84 5.686l-.082.336c-.3 1.237-.819 2.374-1.369 3.579-1.835 4.018-3.915 8.573.158 19.657a.252.252 0 00.237.166zM9.854 12.051a.186.186 0 00.047.047h.002c.013.01.028.014.042.019.007.002.014.007.021.008.011.002.023 0 .034 0 .011 0 .023.002.034 0 .007-.001.013-.006.02-.008.015-.005.03-.01.043-.019h.002a.18.18 0 00.047-.047s.04-.058.07-.146a1.06 1.06 0 00-.017-.643c-.033-.088-.07-.146-.07-.146a.15.15 0 00-.046-.047l-.003-.003c-.007-.004-.014-.005-.02-.008-.01-.004-.02-.009-.031-.011-.01-.002-.02-.001-.029-.001h-.03l-.03.012c-.007.003-.014.004-.02.008-.002 0-.002.002-.004.003a.147.147 0 00-.046.047s-.036.058-.07.146a1.054 1.054 0 00-.017.643.73.73 0 00.071.146z"/>
    </svg>
    <svg viewBox="0 0 17 18" id="phone" xmlns="http://www.w3.org/2000/svg">
        <path
            d="M11.688 15.75c-5.273 0-9.563-4.542-9.563-10.125a4.088 4.088 0 01.93-2.601 3.675 3.675 0 012.317-1.308c.229-.027.46.024.659.145.2.121.357.307.45.53l1.335 3.297a1.177 1.177 0 01-.093 1.062L6.621 8.536a5.237 5.237 0 002.337 2.46l1.667-1.173a.985.985 0 011.003-.091l3.114 1.405c.21.099.386.266.5.477.115.211.163.456.138.698a4.027 4.027 0 01-1.236 2.454 3.615 3.615 0 01-2.457.984zM5.505 2.834c-.64.087-1.23.418-1.656.932a2.91 2.91 0 00-.662 1.859c.002 2.386.898 4.674 2.492 6.362 1.594 1.687 3.755 2.636 6.008 2.638.647 0 1.27-.249 1.756-.7a2.866 2.866 0 00.88-1.754l-3.114-1.406-1.66 1.174a1.012 1.012 0 01-1.043.077 6.333 6.333 0 01-2.842-2.995 1.182 1.182 0 01.067-1.104L6.84 6.131 5.505 2.833z"/>
    </svg>
    <svg viewBox="0 0 24 36" id="rate" xmlns="http://www.w3.org/2000/svg">
        <path fill-rule="evenodd" clip-rule="evenodd"
              d="M18.067 13.325a.415.415 0 00-.416.417v12.871h-4.574l4.018-4.456a.415.415 0 00-.308-.693h-6.725l3.056-8.352a.414.414 0 00-.698-.421L9.24 16.218V13.74a.416.416 0 00-.416-.415h-4.66L13.445 1.6l9.282 11.725h-4.66zM8.124 26.76L5.6 33.66l10.254-11.365H9.468a.415.415 0 01-.39-.557l2.526-6.902L1.349 26.201h6.386a.416.416 0 01.39.558zM13.772.673a.416.416 0 00-.652 0L2.98 13.483a.415.415 0 00.325.673h5.103v2.982l-8.3 9.2a.415.415 0 00.308.694H7.14l-3.057 8.353a.415.415 0 00.699.421l7.544-8.363h5.74c.23 0 .415-.186.415-.416V14.156h5.103a.416.416 0 00.326-.673L13.77.673z"/>
    </svg>
    <svg viewBox="0 0 22 21" id="services1" xmlns="http://www.w3.org/2000/svg">
        <path
            d="M18.278 4.322l-2.112 2.016a7.02 7.02 0 00-2.533-.976C13.042 2.31 10.242 0 6.875 0 3.078 0 0 2.938 0 6.562c0 3.175 2.362 5.823 5.5 6.432v2.756H2.75v2.625H5.5V21h2.75v-2.625H11V15.75H8.25v-2.756c2.634-.51 4.715-2.46 5.318-4.95 1.696.488 2.932 1.99 2.932 3.769 0 1.713-1.149 3.167-2.75 3.708v2.723c3.138-.609 5.5-3.256 5.5-6.431 0-1.338-.42-2.581-1.14-3.619l2.112-2.016L22 7.875v-5.25h-5.5l1.778 1.697zm-12.596 6.01C3.986 9.841 2.75 8.34 2.75 6.561c0-2.174 1.847-3.937 4.125-3.937 1.863 0 3.437 1.18 3.948 2.799-2.549.562-4.552 2.474-5.141 4.907z"/>
    </svg>
    <svg viewBox="0 0 13 25" id="services2" xmlns="http://www.w3.org/2000/svg">
        <path
            d="M2.81 5.52c.028.046.057.093.09.137a2.094 2.094 0 00.24.274c.011.012.024.023.036.034a2.297 2.297 0 003.07.067.388.388 0 01.508 0 2.299 2.299 0 003.092-.085l.005-.004c.078-.075.15-.155.216-.241l.03-.04.015-.02.08-.122.001-.004c.297-.525.319-1.16.06-1.704C9.727 2.666 8.311 0 6.5 0 4.81 0 3.463 2.322 2.865 3.563c-.04.085-.08.168-.116.248-.02.044-.036.09-.053.135a1.84 1.84 0 00.051 1.452c.02.04.039.082.062.122zm.642-1.386C3.78 3.42 4.87 1.238 6.112.84v.71a.388.388 0 00.776 0V.84c1.243.399 2.332 2.58 2.66 3.295.154.314.145.684-.024.99a1.155 1.155 0 01-.061.094 1.525 1.525 0 01-2.308.125.9.9 0 00-1.31 0 1.524 1.524 0 01-2.307-.125c0-.002-.002-.004-.004-.006a.84.84 0 01-.058-.088 1.072 1.072 0 01-.024-.99zM5.764 24.503a3.834 3.834 0 01-1.22-2.803.388.388 0 01.774 0c.003.97.462 1.881 1.24 2.46.66.419 1.426.64 2.207.64.03 0 .058-.004.09-.004h.009l.017-.002a4.125 4.125 0 002.883-1.28 4.084 4.084 0 00-.164-5.802 3.83 3.83 0 00-2-1.058v-9.6a3.086 3.086 0 01-3.1-.24 3.082 3.082 0 01-3.1.239v8.85c.417-.088 1.523-.47 1.872-2.052a.368.368 0 01.719.157c-.415 1.89-1.818 2.54-2.59 2.64v.002c-.84.155-1.601.587-2.165 1.227a4.081 4.081 0 00.165 5.799 4.127 4.127 0 004.363.827z"/>
    </svg>
    <svg viewBox="0 0 34 31" id="services3" xmlns="http://www.w3.org/2000/svg">
        <path
            d="M17.217 14.044a.135.135 0 00-.108.054l-.001.001-.001.001c0 .002-.002.003-.003.004l-.001.003a.286.286 0 01-.218.124l-.006.001-.003.002-.001.001-.003.003v.001a.017.017 0 00-.002.005v.006c.002.005.005.009.01.01a.985.985 0 00.326.056h.011a.135.135 0 00.136-.136.136.136 0 00-.136-.136zm.048.23a.104.104 0 01-.048.011h-.011a.957.957 0 01-.256-.034.317.317 0 00.178-.127l.001-.003a.105.105 0 01.088-.047.106.106 0 01.047.2z"/>
        <path
            d="M17.217 14.104a.015.015 0 100 .03c.025 0 .045.02.045.046 0 .008.007.015.015.015a.015.015 0 00.016-.015.075.075 0 00-.076-.076zM16.864 14.313a.015.015 0 00-.025.008c-.002.005 0 .01.003.015a.088.088 0 01.014.055v.002l-.016.114a.105.105 0 10.196-.033.366.366 0 00-.172-.16zm.115.277a.074.074 0 01-.109-.079v-.002l.015-.11v-.002l.001-.002a.12.12 0 00-.002-.037.334.334 0 01.125.13.075.075 0 01-.03.102z"/>
        <path
            d="M16.962 14.497a.015.015 0 00-.006.02.014.014 0 010 .011.013.013 0 01-.006.008.013.013 0 01-.003.002.015.015 0 10.006.03.045.045 0 00.034-.03.044.044 0 00-.004-.035.015.015 0 00-.021-.006z"/>
        <path
            d="M16.85 14.017a.108.108 0 01-.005.135.015.015 0 00-.003.015.015.015 0 00.013.01h.023a.233.233 0 00.217-.25.136.136 0 00-.271.02c0-.001 0 0 0 0 .002.024.01.048.025.069l.001.001zm.102-.186a.106.106 0 01.113.098.203.203 0 01-.18.217.137.137 0 00-.01-.147.106.106 0 01.077-.168z"/>
        <path
            d="M16.96 13.891c.023 0 .043.019.045.042v.008c0 .009.007.015.015.015a.015.015 0 00.015-.015v-.01a.076.076 0 00-.075-.07.015.015 0 000 .03z"/>
        <path fill-rule="evenodd" clip-rule="evenodd"
              d="M16.045 10.857c.595.892.892 2.18.644 3.27-.198.94-1.04 2.03-2.13 1.832-2.229-.397.842-4.458 1.486-5.102zm0-3.764c-.396.198-2.625 3.814-3.07 4.457-.991 1.487-1.982 3.32-2.527 5.003-1.337 4.161.99 8.47 5.597 8.47 4.656 0 6.984-4.408 5.548-8.569-.594-1.684-1.585-3.467-2.576-4.953-.445-.644-2.625-4.16-3.021-4.408h.05zM24.069 6.548c.842 1.09.594 3.665-.941 3.368-1.387-.248.495-2.972.941-3.368zm0-2.526c-.644.495-3.764 5.448-3.517 6.092l1.833 3.12c1.337 2.576.693 2.824 2.03 2.725 3.022-.248 4.211-3.12 3.27-5.845-.347-.99-2.972-5.597-3.665-6.093h.049zM10.002 3.526c.842 1.09.595 3.666-.99 3.368-1.387-.247.495-2.971.99-3.368zM10.052 1c-.793.496-3.319 5.003-3.715 5.994-1.238 3.566 1.189 5.844 3.17 5.894.545 0 .792-.892 1.04-1.288 3.022-5.102 3.913-3.864 1.486-7.628-.644-.941-1.288-2.08-1.981-2.972z"/>
    </svg>
    <svg viewBox="0 0 23 20" id="services4" xmlns="http://www.w3.org/2000/svg">
        <path
            d="M22.03.285l-7.086 4.53-4.723-1.386a1.592 1.592 0 00-1.03-.008l-5.7 2.152c-.639.242-.759.792-.58 1.261.173.463.798.724 1.263.547L7.462 6.14c-.032-.221-.025-.6.068-.813.272-.612 1.102-.873 1.713-.608l2.244.981-.15.392-2.243-.98a.903.903 0 00-1.178.463.894.894 0 00-.064.427.93.93 0 00.142.426c.098.142.23.25.387.317l4.097 1.783s.338.142.68.2c.37.063.812-.094.812-.094l8.06-3.632V.285zM17.625 11.786c-3.354-.513-5.09-2.564-9.833-3.205-2.606-.352-5.21.263-7.03.889v9.878h21.267v-7.557c-1.318.15-2.916.222-4.404-.005z"/>
    </svg>
    <svg viewBox="0 0 23 26" id="services5" xmlns="http://www.w3.org/2000/svg">
        <path
            d="M21.43 24.237l-.004-.002c-.712-.07-1.554-1.902-1.974-2.842a6.696 6.696 0 01-.398-1.166c-.71-2.942-1.606-4.905-2.37-6.266-.054-.119-.113-.241-.171-.363l.036-.036a.3.3 0 00-.009-.424.296.296 0 00-.282-.068c-.03-.06-.058-.12-.088-.178-.346-.701-.82-1.662-.797-1.888l.005-.03v-.029c-.038-.887-1.649-4.033-3.114-6.678V.544a.2.2 0 00-.2-.2h-.928a.2.2 0 00-.2.2v1.39a46.986 46.986 0 00-.764-1.267.695.695 0 00-.59-.323H5.018a.693.693 0 00-.65.436c-.604 1.518-.7 2.815-.282 3.855 0 0 .222.463.343.64-.033.503-.025 1.113-.017 1.76.018 1.352.039 2.883-.328 3.524-.177.31-.773 1.311-.846 1.434a.3.3 0 00-.391.425c.023.038.049.07.073.107-.129.196-.545.983-.571 1.036-.566 1.125-.842 2.27-.983 3.84a35.29 35.29 0 00-.182 3.529c-.01.874-1.112 1.266-1.06 1.766.044.41.296.272.374.596.182.738.16 1.842.196 2.036a.09.09 0 00.09.074.088.088 0 00.09-.082c.01-.12.106-.822.152-1.46a.401.401 0 01.658-.274c.148.111.277.245.382.398.172.273-.098 1.418.224 1.418h2.26c.198 0 .4 0 .44-.202.078-.382-.058-.922-.67-.96a.009.009 0 00-.004-.002c-.71-.07-1.606-1.894-1.716-2.918.265-1.062.554-2.017.853-2.875a20.444 20.444 0 012.124-4.31l.06.002a.3.3 0 00.257-.452c.223-.316.486-.601.782-.85.358-.297.648-.668.85-1.087.132-.31.845-2.217 1.215-3.364.633.576 1.48 1.349 2.195 2.1V22.22c0 .982-.434 1.913-1.186 2.545l-.363.305a.187.187 0 00.12.33h4.186a.187.187 0 00.12-.33l-.364-.305a3.324 3.324 0 01-1.185-2.545v-9.959c.017.043.033.086.046.13.145.562.578 1.363 1.032 2.088a.3.3 0 00.218.507c.035 0 .072-.003.108-.005.168.25.33.48.473.672.838 1.131 1.629 2.22 2.309 3.154.357.514.649 1.07.87 1.655a2.187 2.187 0 01-.012 1.655c-.086.165-.14.345-.158.53.05.41.378.319.458.642.18.738.16 1.842.196 2.037a.089.089 0 00.088.074h.002a.09.09 0 00.09-.082c.01-.12.106-.823.152-1.46a.4.4 0 01.656-.274c.148.11.278.245.384.398.17.274-.1 1.418.224 1.418h2.26c.198 0 .398 0 .44-.202.078-.383-.058-.922-.67-.96zM6.974 11.514c-.16.321-.384.607-.657.84a5.506 5.506 0 00-1.025 1.136 2.986 2.986 0 01-1.649-1.005c.108-.183.784-1.318.962-1.63.448-.783.428-2.332.408-3.83-.005-.385-.01-.757-.006-1.096a6.08 6.08 0 001.969 1.098c.5.189 1.258.893 1.278.911-.323 1.058-1.14 3.244-1.28 3.576zm6.958 2.83c-.46-.715-.9-1.556-1.042-2.104-.28-1.077-1.933-2.65-3.75-4.304l-.537-.493c-.432-.401-.805-.748-1.415-.978-.638-.24-1.956-.736-2.502-1.95a2.891 2.891 0 01-.222-.79c.015-1.45.9-2.338 1.318-2.781h3.8c.034 0 .066.016.084.044 1.37 2.157 5.023 8.778 5.11 9.961-.033.385.292 1.065.856 2.209l.146.298a4.574 4.574 0 01-1.846.888z"/>
    </svg>
    <svg viewBox="0 0 22 25" id="services6" xmlns="http://www.w3.org/2000/svg">
        <path
            d="M10.807 14.435l-.011-.009-.193-1.492c-.352-2.968-2.257-3.518-2.257-3.518H7.073v-.58c.283-.212.469-.563.469-.958 0-.65-.496-1.176-1.107-1.176s-1.107.526-1.107 1.176c0 .396.186.746.469.959v.58H4.443L2.39 11.164v1.446h-.735s-.043.032-.469.369c-.671.531-.185.553-.185.553h.877v1.038l-.216.375-.553-.698c-.456-.384-.84.107-.84.107-.304.431-.101.739.247 1.04.347.299.175.553.175.553a5.973 5.973 0 00-.562 2.548c0 3.05 2.236 5.523 4.994 5.523h.616c.203.169.456.274.734.274.278 0 .53-.105.734-.274h.215c2.758 0 4.995-2.472 4.995-5.523-.001-1.605-.621-3.05-1.61-4.06zM6.435 7.202c.35 0 .635.302.635.676 0 .372-.284.675-.635.675-.352 0-.636-.303-.636-.675 0-.374.284-.676.636-.676zm.037 16.42c-.314 0-.569-.271-.569-.606 0-.333.255-.604.57-.604.313 0 .568.271.568.604 0 .335-.255.605-.569.605zm.95-1.608h-.216a1.148 1.148 0 00-.734-.273c-.278 0-.53.105-.734.273h-.615c-1.758 0-3.182-1.575-3.182-3.518 0-1.26.6-2.366 1.5-2.987h5.664l.013.01c.893.624 1.485 1.724 1.485 2.977 0 1.943-1.425 3.518-3.182 3.518zM21.485 9.805c-.348-.3-.175-.554-.175-.554.359-.762.562-1.63.562-2.548 0-3.05-2.237-5.523-4.995-5.523h-.616a1.148 1.148 0 00-.734-.273c-.278 0-.53.105-.734.273h-.215c-2.758 0-4.994 2.473-4.994 5.523 0 1.606.62 3.052 1.609 4.06l.01.01.194 1.492c.351 2.968 2.256 3.52 2.256 3.52h1.274v.578a1.196 1.196 0 00-.469.96c0 .649.495 1.175 1.107 1.175.61 0 1.107-.527 1.107-1.176 0-.397-.186-.746-.469-.96v-.578h1.354l2.053-1.75v-1.446h.734s.043-.03.47-.368c.67-.532.185-.553.185-.553h-.877v-1.039l.216-.374.553.697c.456.385.84-.107.84-.107.304-.431.101-.74-.246-1.039zm-5.958-8.227c.315 0 .57.27.57.604 0 .333-.256.604-.57.604-.313 0-.568-.27-.568-.604 0-.333.255-.604.568-.604zm.038 16.42c-.351 0-.636-.303-.636-.676 0-.373.285-.675.636-.675.351 0 .636.302.636.675 0 .373-.285.676-.636.676zm2.993-8.307h-5.663l-.013-.011c-.893-.623-1.485-1.724-1.485-2.976 0-1.943 1.424-3.519 3.181-3.519h.215c.204.168.457.273.734.273.278 0 .531-.105.734-.273h.616c1.757 0 3.182 1.576 3.182 3.519 0 1.26-.6 2.365-1.5 2.987z"/>
    </svg>
    <svg viewBox="0 0 26 21" id="services7" xmlns="http://www.w3.org/2000/svg">
        <path
            d="M24.933 9.934a4.978 4.978 0 00.394-4.056C24.125 2.291 21.307.536 17.393.903c-1.722.169-3.058.903-4.352 1.613-1.945 1.074-3.778 2.1-6.996 1.303-.724-.177-1.36-.036-1.773.389a1.511 1.511 0 00-.316 1.496c.118.623.13 1.26.033 1.887-.08.653-1.023 2.215-2.25 3.408C.578 12.13.16 13.477.56 14.807c.12.395.563 1.388 2.023 1.787a5.737 5.737 0 005.47 4.043c.538-.001 1.072-.077 1.589-.226l.111-.033c.8-.234 1.534-.65 2.146-1.216.068-.06.46-.46.493-.497.212-.254.41-.52.59-.797.416-.615.849-1.249 1.488-1.431.737-.212 1.776.155 2.614.451.247.088.484.172.696.234.05.014.593.147.68.16a5.388 5.388 0 002.464-.102l.112-.033a5.745 5.745 0 003.933-7.091c0-.046-.024-.082-.035-.123zm-1.293 3.84a.135.135 0 01.055.185c-.09.164-.19.323-.297.476a.137.137 0 01-.193.04.136.136 0 01-.03-.195c.099-.146.19-.296.272-.451a.136.136 0 01.193-.055zm-.6.906a.136.136 0 01.013.193 5.278 5.278 0 01-.389.405.136.136 0 01-.185-.198c.13-.121.252-.25.367-.384a.136.136 0 01.193-.016zm-.792.772a.136.136 0 01-.027.19c-.15.113-.308.215-.47.308a.136.136 0 11-.134-.236c.153-.088.301-.184.443-.289a.136.136 0 01.188.027zm-.933.566a.136.136 0 01-.076.177c-.177.07-.359.127-.544.169h-.03a.137.137 0 11-.03-.273c.179-.035.354-.085.525-.149.067-.023.14.01.168.076h-.013zm-2.144.272a.136.136 0 01-.135.12h-.017a6.674 6.674 0 01-.544-.09.139.139 0 01.052-.272c.182.035.356.065.53.084a.137.137 0 01.128.147l-.014.011zm-5.401-.682a1.47 1.47 0 00-.42.271.136.136 0 11-.176-.206c.147-.132.315-.238.498-.313a.136.136 0 01.098.253v-.005zm-1.45 1.498l-.03.041-.296.4a.136.136 0 01-.218-.163l.294-.4.03-.041a.136.136 0 01.19-.03c.061.044.074.13.03.19v.003zm-.68.688a.136.136 0 01.022.19 10.72 10.72 0 01-.357.425.143.143 0 01-.209-.193c.12-.133.234-.272.348-.414a.136.136 0 01.196-.008zm-.718.816a.135.135 0 010 .193 4.51 4.51 0 01-.433.36.137.137 0 01-.19-.03.136.136 0 01.03-.19c.143-.105.28-.217.408-.338a.136.136 0 01.182.014l.003-.009zm-.862.667a.136.136 0 01-.063.182 2.695 2.695 0 01-.544.198h-.032a.137.137 0 01-.033-.271c.167-.043.33-.103.484-.18a.135.135 0 01.182.076l.006-.005zm-2.128.372a.136.136 0 01-.135.128 5.548 5.548 0 01-.544-.065.138.138 0 01.046-.272c.175.03.35.05.528.063a.136.136 0 01.1.152l.005-.006zM23.594 9.313a.136.136 0 01-.187-.04 3.726 3.726 0 00-.316-.422.136.136 0 01.204-.18c.124.143.238.294.34.452a.136.136 0 01-.046.207l.005-.017zm-7.017-2.037a.136.136 0 01-.125.147l-.544.04a.136.136 0 110-.271l.544-.041c.07.009.123.07.12.141l.005-.016zm-1.088.079a.135.135 0 01-.128.144l-.544.033a.136.136 0 010-.272l.544-.033a.136.136 0 01.122.144l.006-.016zM14.4 7.42a.136.136 0 01-.128.142l-.544.024a.136.136 0 010-.272l.544-.024a.136.136 0 01.122.147l.006-.017zm-1.088.05a.137.137 0 01-.13.14l-.544.02a.136.136 0 110-.272l.543-.02a.136.136 0 01.128.148l.003-.017zm-2.157.486l-.305.207-.14.098h-.001a.137.137 0 11-.155-.226l.141-.095.31-.21a.136.136 0 11.15.229v-.003zm-.86.419a.136.136 0 01-.038.188l-.46.293a.136.136 0 01-.143-.23l.454-.292a.136.136 0 01.185.057l.003-.016zm-.922.593a.137.137 0 01-.046.188l-.47.272a.137.137 0 01-.136-.237l.467-.272a.136.136 0 01.185.049zm-.94.544a.136.136 0 01-.052.185l-.48.272a.136.136 0 01-.13-.24l.476-.272a.136.136 0 01.188.055h-.003zm-.953.544a.135.135 0 01-.054.185L7 10.467l-.057.03a.136.136 0 01-.128-.24l.057-.03.416-.231a.136.136 0 01.193.06zm-1.009.704c-.156.095-.307.19-.454.289a.136.136 0 11-.152-.226c.15-.101.306-.2.468-.296a.136.136 0 01.138.233zm-.89.604c-.143.112-.271.229-.413.343a.137.137 0 01-.182-.204c.133-.12.272-.24.427-.356a.136.136 0 01.166.214l.003.003zM3.44 14.511a.136.136 0 01-.114-.155c.028-.184.07-.365.123-.544a.141.141 0 01.272.076c-.055.17-.098.344-.128.52a.136.136 0 01-.134.117l-.019-.014zm.273-1.055a.136.136 0 01-.069-.18c.08-.171.171-.337.272-.497a.136.136 0 01.232.141c-.093.15-.175.307-.248.468a.136.136 0 01-.18.068h-.007zm.543-.95a.136.136 0 01-.024-.19c.112-.144.234-.285.364-.424a.137.137 0 01.199.188c-.125.13-.242.272-.348.405a.136.136 0 01-.19.024v-.002zm7.181-4.849a.136.136 0 01.09-.169c.183-.051.37-.081.56-.09a.133.133 0 01.144.126.136.136 0 01-.125.144c-.169.007-.337.033-.5.079h-.04a.136.136 0 01-.137-.09h.008zm5.54-.544l.545-.046h.087c.075-.005.14.05.147.125a.136.136 0 01-.13.144h-.085l-.544.046a.136.136 0 110-.272l-.02.003zm1.05.054a.136.136 0 01.131-.141h.555a.136.136 0 010 .272h-.541a.136.136 0 01-.15-.117l.006-.014zm1.089 0a.137.137 0 01.144-.128c.181.011.362.027.544.047a.136.136 0 11-.017.272h-.016a9.056 9.056 0 00-.544-.044.136.136 0 01-.114-.141l.003-.006zm1.088.107a.136.136 0 01.157-.11c.188.033.37.074.544.12a.137.137 0 01-.035.272h-.035a6.15 6.15 0 00-.523-.114.136.136 0 01-.111-.163l.003-.005zm1.06.258a.136.136 0 01.175-.082c.176.064.348.138.516.22a.136.136 0 01-.12.245 5.07 5.07 0 00-.489-.206.136.136 0 01-.084-.172l.002-.005zm.985.46a.136.136 0 01.188-.041c.158.103.309.216.451.34a.136.136 0 11-.176.206 3.97 3.97 0 00-.422-.318.136.136 0 01-.04-.188zm-18.833 6.8a.128.128 0 01.136.124v.036c0 .17.011.34.033.508a.136.136 0 01-.117.153H3.45a.136.136 0 01-.136-.12 4.341 4.341 0 01-.035-.544.144.144 0 01.139-.155l-.003-.003zm.103 1.087a.136.136 0 01.166.098l.044.166c.034.118.071.233.111.346a.136.136 0 11-.255.09 5.512 5.512 0 01-.16-.536.136.136 0 01.097-.172l-.003.008zm.343 1.037a.137.137 0 01.182.065c.076.158.16.311.253.46a.136.136 0 01-.231.141c-.1-.159-.19-.323-.272-.492a.136.136 0 01.068-.183v.009zm.544.946a.136.136 0 01.19.022c.109.14.226.272.351.397a.136.136 0 11-.19.193 4.608 4.608 0 01-.375-.421.136.136 0 01.024-.199v.008zm.75.792a.136.136 0 01.191-.025c.14.107.286.206.438.294a.137.137 0 01.062.192.136.136 0 01-.198.042 4.403 4.403 0 01-.468-.313.136.136 0 01-.024-.198v.008zm.926.58a.136.136 0 01.179-.074c.162.069.329.128.498.177a.137.137 0 01-.038.272h-.038a4.722 4.722 0 01-.53-.188.136.136 0 01-.074-.196l.003.008zm2.257.296c.174 0 .354-.017.544-.038a.137.137 0 01.03.272 6.634 6.634 0 01-.544.038.136.136 0 110-.272h-.03zm4.118-2.835a.136.136 0 01-.024-.19c.117-.155.234-.3.348-.432a.136.136 0 11.204.18c-.112.127-.223.271-.338.418a.136.136 0 01-.19.024zm1.665-1.319a.136.136 0 01.114-.155c.18-.027.362-.04.544-.04l.02.136v.136c-.177-.001-.352.012-.526.038h-.022a.136.136 0 01-.133-.117l.003.002zm1.088-.038a.136.136 0 01.152-.117c.174.025.354.057.544.1a.137.137 0 01-.03.273h-.03a5.475 5.475 0 00-.525-.098.136.136 0 01-.114-.158h.003zm1.724.544h-.04l-.523-.155a.141.141 0 11.076-.272l.525.158a.138.138 0 01-.04.272l.002-.003zm.392-.016a.136.136 0 01.169-.093c.17.052.345.1.522.145a.137.137 0 11-.033.271h-.032c-.18-.046-.357-.095-.544-.146a.135.135 0 01-.079-.07.135.135 0 01-.006-.104l.003-.003zm2.28.305h.524a.139.139 0 01.147.127.13.13 0 01-.12.145h-.57a.136.136 0 01-.131-.142.131.131 0 01.147-.128l.002-.002zm4.08-2.824c.074-.162.139-.328.195-.498a.142.142 0 11.272.08c-.054.178-.117.355-.19.527a.136.136 0 01-.25-.106l-.028-.003zm.407-2.747a.136.136 0 01.16.106c.037.184.062.37.074.558a.136.136 0 01-.128.144.136.136 0 01-.136-.128 4.177 4.177 0 00-.068-.525.136.136 0 01.098-.155zm.036 1.904h-.025a.136.136 0 01-.109-.158 4.43 4.43 0 00.063-.525.139.139 0 01.144-.128.136.136 0 01.128.145c-.01.186-.032.373-.065.557a.136.136 0 01-.136.109zm-.107-2.176h-.04a.136.136 0 01-.13-.095 4.257 4.257 0 00-.194-.493.136.136 0 01.248-.114c.079.17.148.344.206.522a.137.137 0 01-.09.18zM1.599 14.484c-.272-.928.033-1.863.898-2.72 1.343-1.308 2.448-3.054 2.57-4.058.055-.446.155-1.564-.068-2.323a.443.443 0 01.057-.435.783.783 0 01.732-.06c3.628.887 5.741-.272 7.787-1.404C14.823 2.796 16.001 2.146 17.5 2c4.306-.421 6.071 2.073 6.8 4.238.254.75.267 1.562.038 2.32-1.123-1.885-3.201-2.668-6.408-2.448-2.149.15-3.536.193-4.455.22-2.068.063-2.1.074-3.512.974a65.865 65.865 0 01-3.536 2.103c-2.824 1.559-4.232 3.628-4.08 5.921a1.45 1.45 0 01-.748-.843z"/>
    </svg>
    <svg viewBox="0 0 34 29" id="sm" xmlns="http://www.w3.org/2000/svg">
        <path
            d="M6.4 28.14c.235.291.66.336.951.101l25.267-20.43a.676.676 0 00.1-.953L27.611.542a.677.677 0 00-.952-.1L1.393 20.871a.677.677 0 00-.101.952l5.107 6.316zM26.983 1.92l4.256 5.263-5.264 4.257-2.128-2.632a.677.677 0 10-1.053.851l2.128 2.632-1.052.851-1.277-1.579a.677.677 0 10-1.053.851l1.277 1.58-1.053.85-1.277-1.578a.677.677 0 10-1.052.85l1.276 1.58-1.052.851-1.277-1.579a.677.677 0 10-1.053.851l1.277 1.58-1.053.85-2.128-2.631a.677.677 0 10-1.053.851l2.128 2.632-1.052.851-1.277-1.579a.677.677 0 10-1.053.851l1.277 1.58-1.053.851-1.277-1.58a.677.677 0 10-1.053.852l1.277 1.58-1.052.85-1.277-1.579a.677.677 0 10-1.053.852l1.277 1.579-1.053.851-2.128-2.632a.677.677 0 10-1.053.851l2.128 2.632-1.052.852-4.257-5.264 24.214-19.58z"/>
        <path
            d="M27.757 8.259a2.033 2.033 0 00.302-2.856 2.033 2.033 0 00-2.856-.303 2.033 2.033 0 00-.302 2.856 2.033 2.033 0 002.856.303zm-1.703-2.106a.678.678 0 11.851 1.055.678.678 0 01-.85-1.055z"/>
    </svg>
    <svg viewBox="0 0 18 18" id="trash" xmlns="http://www.w3.org/2000/svg">
        <g clip-path="url(#baclip0_701_36)">
            <path
                d="M11.483 6.521a.422.422 0 00-.422.422v7.967a.422.422 0 00.843 0V6.943a.422.422 0 00-.421-.422zM6.508 6.521a.422.422 0 00-.421.422v7.967a.422.422 0 00.843 0V6.943a.422.422 0 00-.422-.422z"/>
            <path
                d="M2.883 5.359v10.386c0 .614.225 1.19.618 1.604.392.414.937.65 1.507.65h7.975a2.075 2.075 0 001.507-.65c.393-.414.618-.99.618-1.604V5.359a1.61 1.61 0 00-.413-3.167h-2.159v-.527A1.656 1.656 0 0010.867 0H7.124a1.656 1.656 0 00-1.67 1.665v.527H3.297a1.61 1.61 0 00-.413 3.167zm10.1 11.798H5.008c-.721 0-1.282-.62-1.282-1.412V5.395h10.539v10.35c0 .793-.56 1.412-1.282 1.412zM6.298 1.665a.811.811 0 01.826-.822h3.743a.812.812 0 01.826.822v.527H6.298v-.527zm-3.002 1.37h11.399a.759.759 0 110 1.518H3.296a.759.759 0 110-1.518z"/>
            <path d="M8.996 6.521a.422.422 0 00-.422.422v7.967a.422.422 0 00.843 0V6.943a.422.422 0 00-.421-.422z"/>
        </g>
        <defs>
            <clipPath id="baclip0_701_36">
                <path d="M0 0h18v18H0z"/>
            </clipPath>
        </defs>
    </svg>
    <svg viewBox="0 0 20 21" id="turn" xmlns="http://www.w3.org/2000/svg">
        <path d="M10.004 9.42c.51 0 .921-.412.921-.922V.953a.922.922 0 10-1.843 0v7.545c0 .51.413.922.922.922z"/>
        <path
            d="M15.344 3.892a.92.92 0 10-1.061 1.506 7.455 7.455 0 013.165 6.083c0 4.105-3.34 7.443-7.444 7.443-4.105 0-7.444-3.338-7.444-7.443a7.454 7.454 0 013.165-6.083.921.921 0 10-1.062-1.506 9.3 9.3 0 00-3.946 7.59c0 5.12 4.166 9.286 9.286 9.286 5.121 0 9.287-4.166 9.287-9.287a9.299 9.299 0 00-3.946-7.59z"/>
    </svg>
    <svg viewBox="0 0 24 24" id="up" xmlns="http://www.w3.org/2000/svg">
        <g clip-path="url(#bcclip0_701_29)">
            <path
                d="M7.14 8.075v-.5H4.57L12 .54l7.431 7.035H16.86v7.239H7.14V8.075zM7.14 20.157h9.72v.448H7.14v-.448zM16.86 17.709H7.14v-.448h9.72v.448zM7.14 23.052h9.72v.448H7.14v-.448z"/>
        </g>
        <defs>
            <clipPath id="bcclip0_701_29">
                <path transform="rotate(90 12 12)" d="M0 0h24v24H0z"/>
            </clipPath>
        </defs>
    </svg>
    <svg viewBox="0 0 24 24" id="user" xmlns="http://www.w3.org/2000/svg">
        <path
            d="M13 11a3 3 0 100-5.999A3 3 0 0013 11zm0-4a1 1 0 110 2 1 1 0 010-2zm4.11 3.86a5 5 0 000-5.72A2.91 2.91 0 0118 5a3 3 0 010 6 2.91 2.91 0 01-.89-.14zM13 13c-6 0-6 4-6 4v2h12v-2s0-4-6-4zm-4 4c0-.29.32-2 4-2 3.5 0 3.94 1.56 4 2m7 0v2h-3v-2a5.601 5.601 0 00-1.8-3.94C24 13.55 24 17 24 17zM8 12H5v3H3v-3H0v-2h3V7h2v3h3v2z"/>
    </svg>
    <svg viewBox="0 0 24 24" id="user-card" xmlns="http://www.w3.org/2000/svg">
        <path
            d="M22 3H2c-1.09.04-1.96.91-2 2v14c.04 1.09.91 1.96 2 2h20c1.09-.04 1.96-.91 2-2V5a2.074 2.074 0 00-2-2zm0 16H2V5h20v14zm-8-2v-1.25c0-1.66-3.34-2.5-5-2.5-1.66 0-5 .84-5 2.5V17h10zM9 7a2.5 2.5 0 100 5 2.5 2.5 0 000-5zm5 0v1h6V7h-6zm0 2v1h6V9h-6zm0 2v1h4v-1h-4z"/>
    </svg>
    <svg viewBox="0 0 16 18" id="verif" xmlns="http://www.w3.org/2000/svg">
        <path fill-rule="evenodd" clip-rule="evenodd"
              d="M.3 1.65C.3.739 1.039 0 1.95 0h12.1c.911 0 1.65.739 1.65 1.65v6.236c0 1.056-.016 2.3-.566 3.375-.49.955-1.257 1.817-2.354 2.78-1.095.961-2.555 2.052-4.454 3.452a.55.55 0 01-.652 0c-1.9-1.4-3.359-2.49-4.454-3.452-1.097-.963-1.865-1.825-2.353-2.78C.317 10.186.3 8.942.3 7.886V1.65zm10.818 4.259a.55.55 0 00-.736-.818L7.083 8.06 5.618 6.741a.55.55 0 00-.736.818l1.834 1.65a.55.55 0 00.735 0l3.667-3.3z"/>
    </svg>
    <svg viewBox="0 0 29 29" id="wallet" xmlns="http://www.w3.org/2000/svg">
        <g clip-path="url(#bgclip0_650_24)">
            <path
                d="M27.683 14.622v-4.076a2.63 2.63 0 00-2.426-2.615l-3.785-6.612a2.605 2.605 0 00-3.579-.964L4.917 7.91H2.638a2.639 2.639 0 00-2.636 2.637v15.818A2.639 2.639 0 002.638 29h22.409a2.639 2.639 0 002.636-2.636v-4.076a1.974 1.974 0 001.318-1.856v-3.954c0-.859-.552-1.583-1.318-1.856zm-3.958-6.713H17.98l4.309-2.508 1.436 2.508zm-2.09-3.652L15.36 7.91h-2.602l8.224-4.788.651 1.136zm-3.079-2.763a1.292 1.292 0 011.77.48l.002.003L10.14 7.909H7.537l11.02-6.415zm7.81 24.87a1.32 1.32 0 01-1.32 1.318H2.639a1.32 1.32 0 01-1.318-1.318V10.546a1.32 1.32 0 011.318-1.318h22.409a1.32 1.32 0 011.318 1.318V14.5h-3.954a3.959 3.959 0 00-3.955 3.955 3.959 3.959 0 003.955 3.954h3.954v3.955zm1.317-5.932a.66.66 0 01-.659.66h-4.613a2.639 2.639 0 01-2.637-2.637 2.639 2.639 0 012.637-2.637h4.613a.66.66 0 01.66.66v3.954z"/>
            <path
                d="M22.41 17.137a1.32 1.32 0 00-1.32 1.318 1.32 1.32 0 001.32 1.318 1.32 1.32 0 001.317-1.318 1.32 1.32 0 00-1.318-1.318z"/>
        </g>
        <defs>
            <clipPath id="bgclip0_650_24">
                <path d="M0 0h29v29H0z"/>
            </clipPath>
        </defs>
    </svg>
    <svg viewBox="0 0 30 32" id="weight" xmlns="http://www.w3.org/2000/svg">
        <path
            d="M.028 16.289a5.45 5.45 0 005.465 5.281c4.306 0 6.05-4.684 5.379-5.585L6.566 7.036c.341-.32.542-.78.49-1.303l5.262-1.866a2.754 2.754 0 001.213 1.585v19.64a6.324 6.324 0 00-4.858 5.645H6.606a.478.478 0 100 .955h16.74a.478.478 0 100-.955h-2.07a6.312 6.312 0 00-4.856-5.646V5.45a2.75 2.75 0 001.216-1.583l5.259 1.865c-.05.528.15.987.49 1.305-5.73 11.915-4.06 8.367-4.351 9.048a.538.538 0 00-.036.175c0 .01-.005.018-.005.027a5.45 5.45 0 005.465 5.282c4.324 0 6.032-4.708 5.38-5.585l-4.306-8.947c.53-.495.674-1.301.27-1.969.62-.738 1.474-1.142 1.054-1.561a.358.358 0 00-.506 0L25.3 4.557a1.557 1.557 0 00-2.176.497L17.75 3.148c0-.022.003-.04.003-.065a2.778 2.778 0 00-5.555 0l.002.065-5.375 1.906a1.57 1.57 0 00-1.332-.748c-.299 0-.59.09-.842.251L3.6 3.508a.358.358 0 10-.506.507l1.054 1.053a1.562 1.562 0 00.27 1.967L.077 16.063a.764.764 0 00-.048.225zm5.465 4.326a4.496 4.496 0 01-4.467-3.865H9.96a4.496 4.496 0 01-4.467 3.865zm10.211-14.85v19.198a6.275 6.275 0 00-1.456 0V5.763c.477.13.98.131 1.456 0zm4.62 24.972H9.628a5.375 5.375 0 014.355-4.771 5.183 5.183 0 011.991.001 5.363 5.363 0 014.348 4.77zm4.135-10.121a4.496 4.496 0 01-4.467-3.866h8.934a4.496 4.496 0 01-4.467 3.866zm-4.227-4.823l4.015-8.344c.14.02.284.02.423 0l4.015 8.344h-8.453zM24.46 5.262c.354 0 .62.292.62.625 0 .82-1.241.822-1.241 0 0-.067.275-.625.62-.625zm-9.48-4.237a2.06 2.06 0 012.058 2.058c0 .083-.003.165-.021.267-.295 2.388-3.784 2.386-4.084-.023a1.313 1.313 0 01-.017-.244c0-1.134.926-2.058 2.063-2.058zm-9.62 5.468c-.732-.164-.587-1.232.134-1.232.906 0 .765 1.431-.135 1.232zm-.078.956c.14.02.284.02.423 0l4.015 8.344H1.266l4.015-8.344z"/>
    </svg>
</svg>
