<svg xmlns="http://www.w3.org/2000/svg" fill="none" viewBox="0 0 131 62" width="131">
    <path fill="#111" fill-rule="evenodd" d="M21.7 23.307c-6.658 0-12.055 5.397-12.055 12.055 0 6.658 5.397 12.055 12.055 12.055h73.135L74.743 61.883l36.165-14.466h8.037c6.658 0 12.055-5.397 12.055-12.055 0-6.658-5.397-12.055-12.055-12.055H21.7z" clip-rule="evenodd" opacity=".2"/>
    <path fill="#4926e8" fill-rule="evenodd" d="M20.092 0C8.996 0 0 8.996 0 20.092c0 11.097 8.995 20.092 20.092 20.092h62.687l-8.037 21.7 21.7-21.7h9.644c11.096 0 20.092-8.995 20.092-20.092C126.178 8.996 117.182 0 106.086 0H20.092z" clip-rule="evenodd"/>
    <path fill="#fff" d="M36.547 26.441v-4.614h-2.145l-2.311 4.614h-2.848l2.734-5.458c-1.319-.726-1.978-1.854-1.978-3.383 0-1.254.41-2.224 1.23-2.91.82-.685 1.966-1.034 3.437-1.045h4.526V26.44h-2.645zm-3.911-8.648c0 .715.173 1.233.518 1.556.352.322.876.483 1.573.483h1.82V15.78h-1.82c-1.394 0-2.091.671-2.091 2.013zm18.044 1.942c0-.334-.112-.591-.334-.773-.217-.188-.528-.281-.932-.281-.416 0-.756.088-1.02.263a.822.822 0 00-.386.73h-2.54c0-.861.357-1.562 1.072-2.1.715-.54 1.629-.81 2.742-.81 1.225 0 2.186.24 2.883.721.703.48 1.055 1.163 1.055 2.048 0 .422-.13.812-.387 1.17-.252.35-.61.632-1.072.843 1.084.38 1.626 1.116 1.626 2.206 0 .873-.375 1.57-1.125 2.092-.744.515-1.738.773-2.98.773-1.154 0-2.103-.27-2.847-.808-.745-.54-1.117-1.266-1.117-2.18h2.54c0 .322.144.583.431.782.287.2.662.299 1.125.299.451 0 .803-.105 1.055-.316.252-.211.378-.487.378-.827 0-.416-.12-.712-.36-.887-.24-.182-.601-.273-1.082-.273h-1.38v-1.652h1.468c.791-.024 1.187-.363 1.187-1.02zm4.385 4.659c.575-.61.964-1.213 1.17-1.811.205-.598.319-1.444.342-2.54l.07-3.111h6.997v7.462h1.37v4.904h-2.54V26.44h-5.633v2.857h-2.593v-4.904h.817zm2.998 0h3.05v-5.362h-1.978l-.018 1.143c-.052 1.746-.404 3.152-1.054 4.219zm12.62 2.223c-1.394 0-2.53-.428-3.41-1.283-.873-.855-1.31-1.995-1.31-3.419v-.246c0-.955.185-1.808.555-2.558.369-.756.89-1.336 1.564-1.74.68-.41 1.453-.615 2.32-.615 1.301 0 2.324.41 3.068 1.23.75.82 1.125 1.984 1.125 3.49v1.037h-6.056c.082.62.328 1.119.738 1.494.416.375.94.562 1.574.562.978 0 1.743-.354 2.293-1.063l1.249 1.397c-.381.54-.897.961-1.547 1.266-.65.299-1.371.448-2.162.448zm-.29-7.805c-.503 0-.913.17-1.23.51-.31.34-.51.826-.598 1.46H72.1v-.203c-.012-.562-.164-.996-.457-1.3-.293-.311-.71-.466-1.248-.466zM80 24.57c.469 0 .85-.129 1.143-.386.293-.258.445-.601.457-1.029h2.381a3.28 3.28 0 01-.527 1.776c-.346.533-.82.949-1.424 1.248-.597.293-1.26.44-1.986.44-1.36 0-2.432-.431-3.217-1.293-.785-.867-1.178-2.062-1.178-3.586v-.167c0-1.465.39-2.633 1.17-3.507.779-.873 1.848-1.31 3.207-1.31 1.19 0 2.142.34 2.857 1.02.72.674 1.087 1.574 1.098 2.699H81.6c-.012-.493-.164-.891-.457-1.196-.293-.31-.68-.465-1.16-.465-.592 0-1.04.216-1.345.65-.3.428-.449 1.125-.449 2.092v.263c0 .979.15 1.682.449 2.11.298.427.753.641 1.362.641zm8.147-4.851h1.82c.82 0 1.54.137 2.162.413.621.275 1.096.67 1.424 1.186.334.51.5 1.105.5 1.785 0 1.002-.371 1.81-1.115 2.425-.739.61-1.747.914-3.024.914H85.6v-9.51h2.548v2.787zm0 2.039v2.654h1.802c.504 0 .89-.117 1.16-.351.27-.235.405-.554.405-.958 0-.41-.132-.736-.396-.976-.263-.246-.653-.37-1.169-.37h-1.802z"/>
</svg>
