<svg width="103" height="103" viewBox="0 0 103 103" fill="none" xmlns="http://www.w3.org/2000/svg">
<rect width="103" height="103" rx="11" fill="url(#paint0_linear_2324_2)"/>
<g clip-path="url(#clip0_2324_2)">
<path fill-rule="evenodd" clip-rule="evenodd" d="M51.4995 11.1462L63.1175 36.5947L91 39.8035L70.3098 58.8352L75.842 86.1645L51.5 72.4443L27.158 86.1645L32.6902 58.8352L12 39.8035L39.7727 36.5947L51.4995 11.1462Z" fill="#636B9B"/>
<path d="M12.3696 87.801C12.3498 87.8126 12.3299 87.8199 12.3089 87.8241C12.2891 87.8293 12.2676 87.8324 12.2441 87.8324C12.1771 87.8324 12.1237 87.8136 12.085 87.7759C12.0457 87.7382 12.0264 87.6875 12.0264 87.6231C12.0264 87.5593 12.0457 87.508 12.085 87.4703C12.1237 87.4327 12.1771 87.4138 12.2441 87.4138C12.2676 87.4138 12.2891 87.417 12.3089 87.4222C12.3299 87.4264 12.3498 87.4337 12.3696 87.4431V87.5268C12.3498 87.5143 12.3304 87.5054 12.311 87.4996C12.2927 87.4928 12.2734 87.4892 12.2524 87.4892C12.2158 87.4892 12.1865 87.5012 12.1645 87.5248C12.1436 87.5488 12.1331 87.5813 12.1331 87.6231C12.1331 87.665 12.1436 87.698 12.1645 87.7215C12.1865 87.7456 12.2158 87.7571 12.2524 87.7571C12.2734 87.7571 12.2927 87.7545 12.311 87.7487C12.3304 87.7419 12.3498 87.732 12.3696 87.7194V87.801Z" fill="#636B9B"/>
<path d="M12.6751 87.6043C12.6668 87.6001 12.6584 87.5975 12.65 87.5959C12.6416 87.5933 12.6333 87.5917 12.6249 87.5917C12.6008 87.5917 12.582 87.6001 12.5684 87.6168C12.5543 87.6325 12.5475 87.6545 12.5475 87.6838V87.8241H12.4512V87.5227H12.5475V87.5708C12.56 87.5514 12.5736 87.5373 12.5893 87.5289C12.6061 87.5195 12.6254 87.5143 12.6479 87.5143C12.6521 87.5143 12.6553 87.5153 12.6584 87.5164H12.6751L12.6751 87.6043Z" fill="#636B9B"/>
<path d="M13.0251 87.6713V87.7006H12.7991C12.8017 87.7231 12.81 87.7398 12.8242 87.7508C12.8378 87.7623 12.8577 87.7676 12.8828 87.7676C12.9037 87.7676 12.9246 87.7649 12.9456 87.7592C12.9665 87.7524 12.988 87.7435 13.0105 87.732V87.8052C12.988 87.8136 12.9649 87.8199 12.9414 87.8241C12.9189 87.8293 12.8964 87.8324 12.8744 87.8324C12.82 87.8324 12.7771 87.8188 12.7467 87.7906C12.7159 87.7628 12.7007 87.7236 12.7007 87.6734C12.7007 87.6247 12.7153 87.5865 12.7446 87.5582C12.775 87.5289 12.8163 87.5143 12.8681 87.5143C12.9152 87.5143 12.9529 87.5289 12.9812 87.5582C13.0105 87.5865 13.0251 87.6242 13.0251 87.6713ZM12.9267 87.6399C12.9267 87.6221 12.921 87.6074 12.91 87.5959C12.9001 87.5849 12.8859 87.5792 12.8681 87.5792C12.8498 87.5792 12.8346 87.5849 12.8221 87.5959C12.8106 87.6059 12.8038 87.6205 12.8012 87.6399H12.9267Z" fill="#636B9B"/>
<path d="M13.2348 87.688C13.2138 87.688 13.1981 87.6917 13.1887 87.6985C13.1788 87.7058 13.1741 87.7152 13.1741 87.7278C13.1741 87.7403 13.1782 87.7503 13.1866 87.7571C13.195 87.7644 13.206 87.7676 13.2201 87.7676C13.2379 87.7676 13.2536 87.7613 13.2661 87.7487C13.2787 87.7351 13.285 87.7184 13.285 87.6985V87.688L13.2348 87.688ZM13.3813 87.6524V87.8241H13.285V87.7801C13.2724 87.7984 13.2578 87.8115 13.241 87.8199C13.2243 87.8283 13.2044 87.8324 13.1824 87.8324C13.15 87.8324 13.1243 87.8235 13.105 87.8052C13.0851 87.7874 13.0757 87.7634 13.0757 87.7341C13.0757 87.698 13.0872 87.6723 13.1113 87.6566C13.1364 87.6399 13.1751 87.6315 13.2285 87.6315H13.285V87.6231C13.285 87.608 13.2787 87.597 13.2662 87.5896C13.2546 87.5828 13.2358 87.5792 13.2096 87.5792C13.1887 87.5792 13.1688 87.5813 13.151 87.5854C13.1343 87.5896 13.1181 87.5959 13.1029 87.6043V87.5289C13.1238 87.5247 13.1448 87.5216 13.1657 87.5185C13.1866 87.5159 13.2076 87.5143 13.2285 87.5143C13.2829 87.5143 13.3216 87.5258 13.3457 87.5478C13.3692 87.5687 13.3813 87.6038 13.3813 87.6524Z" fill="#636B9B"/>
<path d="M13.5791 87.4366V87.5225H13.6775V87.5915H13.5791V87.7192C13.5791 87.7333 13.5818 87.7433 13.5875 87.7485C13.5927 87.7527 13.6032 87.7548 13.6189 87.7548H13.6691V87.8239H13.5875C13.5483 87.8239 13.5205 87.8165 13.5038 87.8008C13.4881 87.7841 13.4808 87.7569 13.4808 87.7192V87.5915H13.4326V87.5225H13.4808V87.4366L13.5791 87.4366Z" fill="#636B9B"/>
<path d="M14.0383 87.6713V87.7006H13.8122C13.8149 87.7231 13.8232 87.7398 13.8374 87.7508C13.851 87.7623 13.8709 87.7676 13.896 87.7676C13.9169 87.7676 13.9378 87.7649 13.9588 87.7592C13.9797 87.7524 14.0011 87.7435 14.0236 87.732V87.8052C14.0011 87.8136 13.9781 87.8199 13.9546 87.8241C13.9321 87.8293 13.9096 87.8324 13.8876 87.8324C13.8332 87.8324 13.7903 87.8188 13.7599 87.7906C13.729 87.7628 13.7139 87.7236 13.7139 87.6734C13.7139 87.6247 13.7285 87.5865 13.7578 87.5582C13.7882 87.5289 13.8295 87.5143 13.8813 87.5143C13.9284 87.5143 13.9661 87.5289 13.9943 87.5582C14.0237 87.5865 14.0383 87.6242 14.0383 87.6713ZM13.9399 87.6399C13.9399 87.6221 13.9342 87.6074 13.9232 87.5959C13.9132 87.5849 13.8991 87.5792 13.8813 87.5792C13.863 87.5792 13.8478 87.5849 13.8353 87.5959C13.8238 87.6059 13.817 87.6205 13.8143 87.6399H13.9399Z" fill="#636B9B"/>
<path d="M14.3169 87.5665V87.4032H14.4153V87.8239H14.3169V87.78C14.3043 87.7983 14.2897 87.8114 14.2729 87.8197C14.2572 87.8281 14.2394 87.8323 14.2185 87.8323C14.1808 87.8323 14.15 87.8176 14.1264 87.7883C14.1023 87.758 14.0908 87.7193 14.0908 87.6732C14.0908 87.6272 14.1023 87.5895 14.1264 87.5602C14.15 87.5298 14.1808 87.5141 14.2185 87.5141C14.2394 87.5141 14.2572 87.5183 14.2729 87.5267C14.2897 87.5351 14.3043 87.5487 14.3169 87.5665ZM14.2541 87.7611C14.275 87.7611 14.2902 87.7543 14.3001 87.7402C14.3111 87.725 14.3169 87.7025 14.3169 87.6732C14.3169 87.6439 14.3111 87.6225 14.3001 87.6083C14.2902 87.5932 14.275 87.5853 14.2541 87.5853C14.2332 87.5853 14.2169 87.5932 14.2059 87.6083C14.196 87.6225 14.1913 87.6439 14.1913 87.6732C14.1913 87.7025 14.196 87.725 14.2059 87.7402C14.2169 87.7543 14.2332 87.7611 14.2541 87.7611Z" fill="#636B9B"/>
<path d="M14.8619 87.7611C14.8828 87.7611 14.898 87.7543 14.9079 87.7402C14.9189 87.725 14.9246 87.7025 14.9246 87.6732C14.9246 87.6439 14.9189 87.6224 14.9079 87.6083C14.898 87.5931 14.8828 87.5853 14.8619 87.5853C14.8409 87.5853 14.8247 87.5931 14.8137 87.6083C14.8022 87.6224 14.797 87.6439 14.797 87.6732C14.797 87.7015 14.8022 87.7229 14.8137 87.7381C14.8247 87.7538 14.8409 87.7611 14.8619 87.7611ZM14.797 87.5665C14.8106 87.5487 14.8252 87.5351 14.8409 87.5267C14.8577 87.5183 14.8765 87.5141 14.8974 87.5141C14.9351 87.5141 14.9655 87.5298 14.9895 87.5602C15.0131 87.5895 15.0251 87.6272 15.0251 87.6732C15.0251 87.7193 15.0131 87.758 14.9895 87.7883C14.9655 87.8176 14.9351 87.8323 14.8974 87.8323C14.8765 87.8323 14.8577 87.8281 14.8409 87.8197C14.8252 87.8114 14.8106 87.7983 14.797 87.78V87.8239H14.7007V87.4032H14.797V87.5665Z" fill="#636B9B"/>
<path d="M15.0571 87.5227H15.1534L15.235 87.7278L15.3041 87.5227H15.4004L15.2748 87.8534C15.2607 87.8869 15.2455 87.9099 15.2288 87.9225C15.212 87.9361 15.1895 87.9434 15.1618 87.9434H15.1053V87.8806H15.1367C15.1534 87.8806 15.1649 87.8775 15.1723 87.8723C15.1791 87.8665 15.1848 87.8576 15.189 87.8451L15.1932 87.8367L15.0571 87.5227Z" fill="#636B9B"/>
<path d="M15.9299 87.5729C15.9425 87.5535 15.9571 87.5389 15.9739 87.5289C15.9906 87.5195 16.0084 87.5143 16.0283 87.5143C16.0628 87.5143 16.0895 87.5258 16.1078 87.5478C16.1256 87.5687 16.135 87.5996 16.135 87.6399V87.8241H16.0387V87.6671V87.6587V87.6482C16.0387 87.6273 16.0351 87.6121 16.0283 87.6022C16.0225 87.5928 16.0126 87.5875 15.999 87.5875C15.9807 87.5875 15.9665 87.5954 15.9571 87.6106C15.9472 87.6263 15.9414 87.6477 15.9404 87.6755V87.8241H15.8441V87.6671C15.8441 87.6336 15.8409 87.6121 15.8357 87.6022C15.8299 87.5928 15.8195 87.5875 15.8043 87.5875C15.786 87.5875 15.7713 87.5954 15.7604 87.6106C15.7504 87.6263 15.7457 87.6477 15.7457 87.6755V87.8241H15.6494V87.5227H15.7457V87.5666C15.7583 87.5499 15.7719 87.5373 15.7876 87.5289C15.8027 87.5195 15.8195 87.5143 15.8378 87.5143C15.8587 87.5143 15.8765 87.52 15.8922 87.531C15.909 87.541 15.9215 87.5551 15.9299 87.5729Z" fill="#636B9B"/>
<path d="M16.3711 87.5834C16.3501 87.5834 16.3334 87.5912 16.3208 87.6064C16.3093 87.6221 16.3041 87.6441 16.3041 87.6734C16.3041 87.7027 16.3093 87.7252 16.3208 87.7403C16.3334 87.756 16.3501 87.7634 16.3711 87.7634C16.392 87.7634 16.4077 87.756 16.4192 87.7403C16.4302 87.7252 16.436 87.7027 16.436 87.6734C16.436 87.6441 16.4302 87.6221 16.4192 87.6064C16.4077 87.5912 16.392 87.5834 16.3711 87.5834ZM16.3711 87.5143C16.4223 87.5143 16.4632 87.5284 16.4925 87.5561C16.5218 87.5844 16.5364 87.6231 16.5364 87.6734C16.5364 87.7236 16.5218 87.7628 16.4925 87.7906C16.4632 87.8188 16.4223 87.8324 16.3711 87.8324C16.3177 87.8324 16.2769 87.8188 16.2476 87.7906C16.2183 87.7628 16.2036 87.7236 16.2036 87.6734C16.2036 87.6231 16.2183 87.5844 16.2476 87.5561C16.2769 87.5284 16.3177 87.5143 16.3711 87.5143Z" fill="#636B9B"/>
<path d="M16.91 87.6397V87.8239H16.8137V87.6837C16.8137 87.6575 16.8126 87.6392 16.8116 87.6292C16.81 87.6198 16.8079 87.612 16.8053 87.6062C16.8011 87.601 16.7954 87.5968 16.7885 87.5937C16.7828 87.5895 16.776 87.5874 16.7676 87.5874C16.7477 87.5874 16.732 87.5952 16.7195 87.6104C16.708 87.6261 16.7027 87.6476 16.7027 87.6753V87.8239H16.6064V87.4032H16.7027V87.5665C16.7179 87.5487 16.7331 87.5351 16.7488 87.5267C16.7655 87.5183 16.7833 87.5141 16.8032 87.5141C16.8377 87.5141 16.8644 87.5257 16.8827 87.5476C16.9005 87.5686 16.91 87.5994 16.91 87.6397Z" fill="#636B9B"/>
<path d="M17.0005 87.4032H17.0968V87.6334L17.2077 87.5225H17.3207L17.1742 87.6607L17.3333 87.8239H17.2161L17.0968 87.6983V87.8239H17.0005L17.0005 87.4032Z" fill="#636B9B"/>
<path d="M17.5048 87.688C17.4838 87.688 17.4681 87.6917 17.4587 87.6985C17.4488 87.7058 17.4441 87.7152 17.4441 87.7278C17.4441 87.7403 17.4483 87.7503 17.4566 87.7571C17.465 87.7644 17.476 87.7676 17.4901 87.7676C17.5079 87.7676 17.5236 87.7613 17.5362 87.7487C17.5487 87.7351 17.555 87.7184 17.555 87.6985V87.688L17.5048 87.688ZM17.6513 87.6524V87.8241H17.555V87.7801C17.5425 87.7984 17.5278 87.8115 17.5111 87.8199C17.4943 87.8283 17.4744 87.8324 17.4525 87.8324C17.42 87.8324 17.3944 87.8235 17.375 87.8052C17.3551 87.7874 17.3457 87.7634 17.3457 87.7341C17.3457 87.698 17.3572 87.6723 17.3813 87.6566C17.4064 87.6399 17.4451 87.6315 17.4985 87.6315H17.555V87.6231C17.555 87.608 17.5487 87.597 17.5362 87.5896C17.5247 87.5828 17.5058 87.5792 17.4797 87.5792C17.4587 87.5792 17.4388 87.5813 17.4211 87.5854C17.4043 87.5896 17.3881 87.5959 17.3729 87.6043V87.5289C17.3938 87.5247 17.4148 87.5216 17.4357 87.5185C17.4566 87.5159 17.4776 87.5143 17.4985 87.5143C17.5529 87.5143 17.5916 87.5258 17.6157 87.5478C17.6393 87.5687 17.6513 87.6038 17.6513 87.6524Z" fill="#636B9B"/>
<path d="M18.0217 87.5729C18.0343 87.5535 18.0489 87.5389 18.0656 87.5289C18.0824 87.5195 18.1002 87.5143 18.1201 87.5143C18.1546 87.5143 18.1813 87.5258 18.1996 87.5478C18.2174 87.5687 18.2268 87.5996 18.2268 87.6399V87.8241H18.1305V87.6671V87.6587V87.6482C18.1305 87.6273 18.1269 87.6121 18.1201 87.6022C18.1143 87.5928 18.1044 87.5875 18.0908 87.5875C18.0724 87.5875 18.0583 87.5954 18.0489 87.6106C18.039 87.6263 18.0332 87.6477 18.0322 87.6755V87.8241H17.9359V87.6671C17.9359 87.6336 17.9327 87.6121 17.9275 87.6022C17.9217 87.5928 17.9113 87.5875 17.8961 87.5875C17.8778 87.5875 17.8631 87.5954 17.8521 87.6106C17.8422 87.6263 17.8375 87.6477 17.8375 87.6755V87.8241H17.7412V87.5227H17.8375V87.5666C17.8501 87.5499 17.8637 87.5373 17.8794 87.5289C17.8945 87.5195 17.9113 87.5143 17.9296 87.5143C17.9505 87.5143 17.9683 87.52 17.984 87.531C18.0008 87.541 18.0133 87.5551 18.0217 87.5729Z" fill="#636B9B"/>
<path d="M18.3184 87.5225H18.4146V87.8239H18.3184V87.5225ZM18.3184 87.4032H18.4146V87.4827H18.3184V87.4032Z" fill="#636B9B"/>
<path d="M18.5078 87.4032H18.6041V87.8239H18.5078V87.4032Z" fill="#636B9B"/>
<path d="M12.2437 87.9564V88.0213H12.1914C12.1773 88.0213 12.1673 88.0244 12.1621 88.0297C12.1563 88.0339 12.1537 88.0422 12.1537 88.0548V88.0757H12.2374V88.1448H12.1537V88.3771H12.0574V88.1448H12.0093V88.0757H12.0574V88.0548C12.0574 88.0213 12.0663 87.9972 12.0846 87.9815C12.1024 87.9648 12.1312 87.9564 12.1704 87.9564H12.2437Z" fill="#636B9B"/>
<path d="M12.5096 88.1573C12.5012 88.1531 12.4929 88.1505 12.4845 88.1489C12.4761 88.1463 12.4677 88.1447 12.4594 88.1447C12.4353 88.1447 12.4165 88.1531 12.4029 88.1698C12.3887 88.1855 12.3819 88.2075 12.3819 88.2368V88.377H12.2856V88.0756H12.3819V88.1238C12.3945 88.1044 12.4081 88.0903 12.4238 88.0819C12.4405 88.0725 12.4599 88.0673 12.4824 88.0673C12.4866 88.0673 12.4897 88.0683 12.4929 88.0694H12.5096L12.5096 88.1573Z" fill="#636B9B"/>
<path d="M12.7031 88.1363C12.6822 88.1363 12.6654 88.1442 12.6529 88.1594C12.6413 88.1751 12.6361 88.197 12.6361 88.2263C12.6361 88.2556 12.6413 88.2781 12.6529 88.2933C12.6654 88.309 12.6822 88.3163 12.7031 88.3163C12.724 88.3163 12.7397 88.309 12.7512 88.2933C12.7622 88.2781 12.768 88.2556 12.768 88.2263C12.768 88.197 12.7622 88.1751 12.7512 88.1594C12.7397 88.1442 12.724 88.1363 12.7031 88.1363ZM12.7031 88.0673C12.7544 88.0673 12.7952 88.0814 12.8245 88.1091C12.8538 88.1374 12.8685 88.1761 12.8685 88.2263C12.8685 88.2766 12.8538 88.3158 12.8245 88.3436C12.7952 88.3718 12.7544 88.3854 12.7031 88.3854C12.6497 88.3854 12.6089 88.3718 12.5796 88.3436C12.5503 88.3158 12.5356 88.2766 12.5356 88.2263C12.5356 88.1761 12.5503 88.1374 12.5796 88.1091C12.6089 88.0814 12.6497 88.0673 12.7031 88.0673Z" fill="#636B9B"/>
<path d="M13.2194 88.1259C13.232 88.1065 13.2467 88.0919 13.2634 88.0819C13.2801 88.0725 13.2979 88.0673 13.3178 88.0673C13.3524 88.0673 13.379 88.0788 13.3974 88.1008C13.4152 88.1217 13.4246 88.1526 13.4246 88.1928V88.377H13.3283V88.2201V88.2117V88.2012C13.3283 88.1803 13.3246 88.1651 13.3178 88.1552C13.3121 88.1458 13.3021 88.1405 13.2885 88.1405C13.2702 88.1405 13.2561 88.1484 13.2467 88.1635C13.2367 88.1792 13.231 88.2007 13.2299 88.2284V88.377H13.1336V88.2201C13.1336 88.1866 13.1305 88.1651 13.1253 88.1552C13.1195 88.1458 13.109 88.1405 13.0939 88.1405C13.0755 88.1405 13.0609 88.1484 13.0499 88.1635C13.04 88.1792 13.0352 88.2007 13.0352 88.2284V88.377H12.939V88.0756H13.0352V88.1196C13.0478 88.1028 13.0614 88.0903 13.0771 88.0819C13.0923 88.0725 13.109 88.0673 13.1273 88.0673C13.1483 88.0673 13.1661 88.073 13.1818 88.084C13.1985 88.0939 13.2111 88.1081 13.2194 88.1259Z" fill="#636B9B"/>
<path d="M13.814 87.99V88.0758H13.9124V88.1449H13.814V88.2726C13.814 88.2867 13.8166 88.2966 13.8224 88.3019C13.8276 88.3061 13.8381 88.3081 13.8538 88.3081H13.904V88.3772H13.8224C13.7831 88.3772 13.7554 88.3699 13.7386 88.3542C13.7229 88.3374 13.7156 88.3102 13.7156 88.2726V88.1449H13.6675V88.0758H13.7156V87.99L13.814 87.99Z" fill="#636B9B"/>
<path d="M14.2757 88.1929V88.3771H14.1794V88.2369C14.1794 88.2107 14.1783 88.1924 14.1773 88.1825C14.1757 88.1731 14.1736 88.1652 14.171 88.1594C14.1668 88.1542 14.1611 88.15 14.1543 88.1469C14.1485 88.1427 14.1417 88.1406 14.1333 88.1406C14.1135 88.1406 14.0978 88.1485 14.0852 88.1636C14.0737 88.1793 14.0685 88.2008 14.0685 88.2285V88.3771H13.9722V87.9564H14.0685V88.1197C14.0836 88.1019 14.0988 88.0883 14.1145 88.0799C14.1312 88.0715 14.149 88.0674 14.1689 88.0674C14.2035 88.0674 14.2301 88.0789 14.2485 88.1009C14.2663 88.1218 14.2757 88.1526 14.2757 88.1929Z" fill="#636B9B"/>
<path d="M14.6672 88.2242V88.2535H14.4411C14.4438 88.2761 14.4521 88.2928 14.4663 88.3038C14.4799 88.3153 14.4998 88.3205 14.5249 88.3205C14.5458 88.3205 14.5667 88.3179 14.5877 88.3122C14.6086 88.3054 14.6301 88.2965 14.6526 88.2849V88.3582C14.6301 88.3666 14.607 88.3729 14.5835 88.377C14.561 88.3823 14.5385 88.3854 14.5165 88.3854C14.4621 88.3854 14.4192 88.3718 14.3888 88.3436C14.3579 88.3158 14.3428 88.2766 14.3428 88.2263C14.3428 88.1777 14.3574 88.1395 14.3867 88.1112C14.4171 88.0819 14.4584 88.0673 14.5102 88.0673C14.5573 88.0673 14.595 88.0819 14.6233 88.1112C14.6526 88.1395 14.6672 88.1771 14.6672 88.2242ZM14.5688 88.1928C14.5688 88.1751 14.5631 88.1604 14.5521 88.1489C14.5421 88.1379 14.528 88.1321 14.5102 88.1321C14.4919 88.1321 14.4767 88.1379 14.4642 88.1489C14.4527 88.1588 14.4459 88.1735 14.4432 88.1928H14.5688Z" fill="#636B9B"/>
<path d="M14.938 87.9752H15.0552L15.2017 88.2515V87.9752H15.3001V88.3771H15.1829L15.0364 88.1008V88.3771H14.938V87.9752Z" fill="#636B9B"/>
<path d="M15.541 88.1363C15.5201 88.1363 15.5033 88.1442 15.4908 88.1594C15.4792 88.1751 15.474 88.197 15.474 88.2263C15.474 88.2556 15.4792 88.2781 15.4908 88.2933C15.5033 88.309 15.5201 88.3163 15.541 88.3163C15.5619 88.3163 15.5776 88.309 15.5891 88.2933C15.6001 88.2781 15.6059 88.2556 15.6059 88.2263C15.6059 88.197 15.6001 88.1751 15.5891 88.1594C15.5776 88.1442 15.5619 88.1363 15.541 88.1363ZM15.541 88.0673C15.5923 88.0673 15.6331 88.0814 15.6624 88.1091C15.6917 88.1374 15.7063 88.1761 15.7063 88.2263C15.7063 88.2766 15.6917 88.3158 15.6624 88.3436C15.6331 88.3718 15.5923 88.3854 15.541 88.3854C15.4876 88.3854 15.4468 88.3718 15.4175 88.3436C15.3882 88.3158 15.3735 88.2766 15.3735 88.2263C15.3735 88.1761 15.3882 88.1374 15.4175 88.1091C15.4468 88.0814 15.4876 88.0673 15.541 88.0673Z" fill="#636B9B"/>
<path d="M15.7749 88.2599V88.0757H15.8712V88.105V88.1678V88.2159C15.8712 88.241 15.8717 88.2594 15.8733 88.2703C15.8743 88.2803 15.8764 88.2871 15.8796 88.2913C15.8837 88.2986 15.8885 88.3038 15.8942 88.308C15.901 88.3112 15.9089 88.3122 15.9172 88.3122C15.9366 88.3122 15.9518 88.3049 15.9633 88.2892C15.9758 88.274 15.9821 88.2526 15.9821 88.2243V88.0757H16.0784V88.3771H15.9821V88.3331C15.9664 88.3515 15.9507 88.3645 15.934 88.3729C15.9183 88.3813 15.901 88.3855 15.8817 88.3855C15.8466 88.3855 15.8199 88.375 15.8021 88.3541C15.7838 88.3321 15.7749 88.3007 15.7749 88.2599Z" fill="#636B9B"/>
<path d="M16.4744 88.1928V88.377H16.3781V88.2368C16.3781 88.2106 16.3771 88.1923 16.376 88.1824C16.3745 88.173 16.3724 88.1651 16.3697 88.1594C16.3656 88.1541 16.3598 88.1499 16.353 88.1468C16.3472 88.1426 16.3404 88.1405 16.3321 88.1405C16.3122 88.1405 16.2965 88.1484 16.2839 88.1635C16.2724 88.1792 16.2672 88.2007 16.2672 88.2284V88.377H16.1709V88.0756H16.2672V88.1196C16.2824 88.1018 16.2975 88.0882 16.3132 88.0798C16.33 88.0714 16.3478 88.0673 16.3677 88.0673C16.4022 88.0673 16.4289 88.0788 16.4472 88.1008C16.465 88.1217 16.4744 88.1526 16.4744 88.1928Z" fill="#636B9B"/>
<path d="M16.7612 87.9752H16.935C16.9852 87.9752 17.0239 87.9867 17.0522 88.0087C17.0799 88.0312 17.094 88.0631 17.094 88.105C17.094 88.1484 17.0799 88.1814 17.0522 88.2034C17.0239 88.2259 16.9852 88.2369 16.935 88.2369H16.8659V88.3771H16.7612L16.7612 87.9752ZM16.8659 88.0506V88.1615H16.9224C16.9433 88.1615 16.9585 88.1568 16.9685 88.1469C16.9794 88.1374 16.9852 88.1233 16.9852 88.105C16.9852 88.0872 16.9794 88.0736 16.9685 88.0652C16.9585 88.0558 16.9433 88.0506 16.9224 88.0506L16.8659 88.0506Z" fill="#636B9B"/>
<path d="M17.3866 88.1573C17.3782 88.1531 17.3698 88.1505 17.3614 88.1489C17.3531 88.1463 17.3447 88.1447 17.3363 88.1447C17.3123 88.1447 17.2934 88.1531 17.2798 88.1698C17.2657 88.1855 17.2589 88.2075 17.2589 88.2368V88.377H17.1626V88.0756H17.2589V88.1238C17.2714 88.1044 17.285 88.0903 17.3007 88.0819C17.3175 88.0725 17.3369 88.0673 17.3594 88.0673C17.3635 88.0673 17.3667 88.0683 17.3698 88.0694H17.3866L17.3866 88.1573Z" fill="#636B9B"/>
<path d="M17.5796 88.1363C17.5586 88.1363 17.5419 88.1442 17.5293 88.1594C17.5178 88.1751 17.5126 88.197 17.5126 88.2263C17.5126 88.2556 17.5178 88.2781 17.5293 88.2933C17.5419 88.309 17.5586 88.3163 17.5796 88.3163C17.6005 88.3163 17.6162 88.309 17.6277 88.2933C17.6387 88.2781 17.6444 88.2556 17.6444 88.2263C17.6444 88.197 17.6387 88.1751 17.6277 88.1594C17.6162 88.1442 17.6005 88.1363 17.5796 88.1363ZM17.5796 88.0673C17.6308 88.0673 17.6717 88.0814 17.701 88.1091C17.7303 88.1374 17.7449 88.1761 17.7449 88.2263C17.7449 88.2766 17.7303 88.3158 17.701 88.3436C17.6717 88.3718 17.6308 88.3854 17.5796 88.3854C17.5262 88.3854 17.4854 88.3718 17.4561 88.3436C17.4268 88.3158 17.4121 88.2766 17.4121 88.2263C17.4121 88.1761 17.4268 88.1374 17.4561 88.1091C17.4854 88.0814 17.5262 88.0673 17.5796 88.0673Z" fill="#636B9B"/>
<path d="M17.8159 88.0757H17.9121V88.3709C17.9121 88.4111 17.9022 88.442 17.8828 88.463C17.863 88.4849 17.8352 88.4964 17.7991 88.4964H17.751V88.4337H17.7677C17.7855 88.4337 17.7981 88.4295 17.8054 88.4211C17.8122 88.4127 17.8159 88.396 17.8159 88.3709L17.8159 88.0757ZM17.8159 87.9564H17.9121V88.036H17.8159V87.9564Z" fill="#636B9B"/>
<path d="M18.3064 88.2242V88.2535H18.0803C18.0829 88.2761 18.0913 88.2928 18.1054 88.3038C18.119 88.3153 18.1389 88.3205 18.164 88.3205C18.185 88.3205 18.2059 88.3179 18.2268 88.3122C18.2478 88.3054 18.2692 88.2965 18.2917 88.2849V88.3582C18.2692 88.3666 18.2462 88.3729 18.2226 88.377C18.2001 88.3823 18.1776 88.3854 18.1557 88.3854C18.1012 88.3854 18.0583 88.3718 18.028 88.3436C17.9971 88.3158 17.9819 88.2766 17.9819 88.2263C17.9819 88.1777 17.9966 88.1395 18.0259 88.1112C18.0562 88.0819 18.0976 88.0673 18.1494 88.0673C18.1965 88.0673 18.2342 88.0819 18.2624 88.1112C18.2917 88.1395 18.3064 88.1771 18.3064 88.2242ZM18.208 88.1928C18.208 88.1751 18.2022 88.1604 18.1912 88.1489C18.1813 88.1379 18.1672 88.1321 18.1494 88.1321C18.1311 88.1321 18.1159 88.1379 18.1033 88.1489C18.0918 88.1588 18.085 88.1735 18.0824 88.1928H18.208Z" fill="#636B9B"/>
<path d="M18.6253 88.084V88.1635C18.6112 88.1541 18.5971 88.1468 18.5835 88.1426C18.5709 88.1384 18.5573 88.1363 18.5437 88.1363C18.517 88.1363 18.4961 88.1447 18.4809 88.1615C18.4652 88.1771 18.4579 88.1986 18.4579 88.2263C18.4579 88.2546 18.4652 88.2766 18.4809 88.2933C18.4961 88.309 18.517 88.3163 18.5437 88.3163C18.5589 88.3163 18.5735 88.3143 18.5877 88.3101C18.6013 88.3048 18.6138 88.2975 18.6253 88.2891V88.3687C18.6096 88.3744 18.5945 88.3781 18.5793 88.3812C18.5636 88.3838 18.5479 88.3854 18.5312 88.3854C18.4767 88.3854 18.4338 88.3718 18.4035 88.3436C18.3726 88.3158 18.3574 88.2766 18.3574 88.2263C18.3574 88.1761 18.3726 88.1374 18.4035 88.1091C18.4338 88.0814 18.4767 88.0673 18.5312 88.0673C18.5479 88.0673 18.5636 88.0688 18.5793 88.0714C18.5945 88.0746 18.6096 88.0788 18.6253 88.084Z" fill="#636B9B"/>
<path d="M18.815 87.99V88.0758H18.9134V88.1449H18.815V88.2726C18.815 88.2867 18.8176 88.2966 18.8234 88.3019C18.8286 88.3061 18.839 88.3081 18.8547 88.3081H18.905V88.3772H18.8234C18.7841 88.3772 18.7564 88.3699 18.7396 88.3542C18.7239 88.3374 18.7166 88.3102 18.7166 88.2726V88.1449H18.6685V88.0758H18.7166V87.99L18.815 87.99Z" fill="#636B9B"/>
</g>
<path d="M10.08 44H12.32C13.6533 44 14.7133 44.18 15.5 44.54C16.2867 44.8867 16.86 45.3467 17.22 45.92C17.5933 46.4933 17.8 47.1267 17.84 47.82C17.88 48.5533 17.7667 49.22 17.5 49.82C17.2467 50.42 16.88 50.92 16.4 51.32C15.9333 51.72 15.4 52.0067 14.8 52.18C14.2 52.34 13.5733 52.3667 12.92 52.26C12.2667 52.14 11.6333 51.86 11.02 51.42V51.22C11.02 51.22 11.08 51.2133 11.2 51.2C11.3333 51.1733 11.5 51.12 11.7 51.04C11.9 50.96 12.1067 50.84 12.32 50.68C12.5467 50.52 12.76 50.2933 12.96 50C13.16 49.6933 13.3133 49.3133 13.42 48.86C13.4733 48.66 13.5067 48.4533 13.52 48.24C13.5467 48.0267 13.5533 47.8333 13.54 47.66C13.5133 46.8467 13.28 46.2 12.84 45.72C12.4133 45.24 11.8133 45 11.04 45H10.28C10.28 45 10.26 44.92 10.22 44.76C10.1933 44.5867 10.16 44.42 10.12 44.26C10.0933 44.0867 10.08 44 10.08 44ZM10.34 44V58H6.24V44H10.34ZM6.3 56.54V58H4.7V57.8C4.72667 57.8 4.77333 57.8 4.84 57.8C4.90667 57.8 4.94667 57.8 4.96 57.8C5.30667 57.8 5.6 57.68 5.84 57.44C6.09333 57.1867 6.22667 56.8867 6.24 56.54H6.3ZM6.3 45.46H6.24C6.24 45.1133 6.11333 44.82 5.86 44.58C5.60667 44.3267 5.30667 44.2 4.96 44.2C4.94667 44.2 4.90667 44.2 4.84 44.2C4.78667 44.2 4.74667 44.2 4.72 44.2L4.7 44H6.3V45.46ZM10.28 56.54H10.34C10.3533 56.8867 10.48 57.1867 10.72 57.44C10.9733 57.68 11.2733 57.8 11.62 57.8C11.6467 57.8 11.6933 57.8 11.76 57.8C11.8267 57.8 11.8667 57.8 11.88 57.8V58H10.28V56.54ZM23.8006 46H25.6606C26.1673 46 26.6873 46.0467 27.2206 46.14C27.754 46.22 28.2473 46.3733 28.7006 46.6C29.154 46.8267 29.5206 47.16 29.8006 47.6C30.0806 48.0267 30.2206 48.5933 30.2206 49.3C30.2206 49.7 30.1473 50.1267 30.0006 50.58C29.8673 51.0333 29.614 51.44 29.2406 51.8C28.8806 52.1467 28.354 52.38 27.6606 52.5C28.1673 52.6333 28.614 52.8867 29.0006 53.26C29.3873 53.6333 29.6673 53.9733 29.8406 54.28C29.934 54.44 30.034 54.64 30.1406 54.88C30.2606 55.1067 30.4006 55.36 30.5606 55.64C30.7206 55.92 30.9006 56.22 31.1006 56.54C31.354 56.9267 31.574 57.2133 31.7606 57.4C31.9473 57.5733 32.1273 57.6867 32.3006 57.74C32.474 57.78 32.6673 57.8 32.8806 57.8V58H30.5206C29.814 58 29.2006 57.9733 28.6806 57.92C28.1606 57.8533 27.694 57.68 27.2806 57.4C26.8806 57.1067 26.4873 56.6333 26.1006 55.98C25.954 55.7267 25.8273 55.4933 25.7206 55.28C25.6273 55.0533 25.5473 54.8333 25.4806 54.62C25.414 54.4067 25.354 54.1867 25.3006 53.96C25.2606 53.7333 25.214 53.5 25.1606 53.26C25.0673 52.7933 24.9473 52.4933 24.8006 52.36C24.654 52.2133 24.554 52.1333 24.5006 52.12V51.96C24.514 51.96 24.5273 51.96 24.5406 51.96C24.554 51.96 24.574 51.96 24.6006 51.96C24.814 51.96 25.0273 51.8933 25.2406 51.76C25.454 51.6267 25.6406 51.4067 25.8006 51.1C25.9606 50.78 26.0673 50.34 26.1206 49.78C26.1206 49.74 26.1273 49.6667 26.1406 49.56C26.154 49.4533 26.154 49.3133 26.1406 49.14C26.114 48.5667 26.014 48.1333 25.8406 47.84C25.6673 47.5333 25.4673 47.32 25.2406 47.2C25.0273 47.08 24.834 47.0133 24.6606 47C24.4873 46.9733 24.3873 46.96 24.3606 46.96C24.334 46.96 24.3006 46.96 24.2606 46.96C24.234 46.96 24.1273 46.96 23.9406 46.96C23.9273 46.96 23.9073 46.88 23.8806 46.72C23.8673 46.56 23.8473 46.4 23.8206 46.24C23.8073 46.08 23.8006 46 23.8006 46ZM23.9606 46V58H20.0206V46H23.9606ZM20.0806 56.76L20.0606 58H18.7806V57.8C18.8073 57.8 18.834 57.8 18.8606 57.8C18.9006 57.8 18.9473 57.8 19.0006 57.8C19.2673 57.8 19.5006 57.7 19.7006 57.5C19.914 57.3 20.0206 57.0533 20.0206 56.76H20.0806ZM20.0806 47.24H20.0206C20.0206 46.9333 19.9206 46.6867 19.7206 46.5C19.5206 46.3 19.2873 46.2 19.0206 46.2C18.9673 46.2 18.9206 46.2 18.8806 46.2C18.8406 46.2 18.8073 46.2 18.7806 46.2V46H20.0606L20.0806 47.24ZM23.9206 56.76H23.9606C23.9606 57.1067 24.0806 57.3667 24.3206 57.54C24.5606 57.7133 24.794 57.8 25.0206 57.8C25.0206 57.8 25.0406 57.8 25.0806 57.8C25.1206 57.8 25.1606 57.8 25.2006 57.8V58H23.9406L23.9206 56.76ZM37.2953 46V58H33.3753V46H37.2953ZM41.5153 57.08L42.3153 58H37.2553V57.08H41.5153ZM41.0153 51.62V52.56H37.2553V51.62H41.0153ZM41.8953 46V46.92H37.2553V46H41.8953ZM42.9153 53.8L42.3553 58H38.6353L39.2153 57.08C39.7353 57.08 40.2286 56.9533 40.6953 56.7C41.1753 56.4333 41.5953 56.06 41.9553 55.58C42.3153 55.0867 42.5753 54.4933 42.7353 53.8H42.9153ZM41.0153 52.52V54.68H40.8153V54.6C40.8153 54.0133 40.6286 53.5333 40.2553 53.16C39.8953 52.7733 39.422 52.5733 38.8353 52.56V52.52H41.0153ZM41.0153 49.52V51.66H38.8353V51.62C39.422 51.6067 39.8953 51.4067 40.2553 51.02C40.6286 50.6333 40.8153 50.1467 40.8153 49.56V49.52H41.0153ZM41.8953 46.88V49.48H41.6953V49.38C41.6953 48.6067 41.4953 48.0067 41.0953 47.58C40.6953 47.1533 40.1153 46.9333 39.3553 46.92V46.88H41.8953ZM41.8953 45.7V46.18L39.9153 46C40.2753 46 40.6553 45.9667 41.0553 45.9C41.4686 45.82 41.7486 45.7533 41.8953 45.7ZM33.4353 56.76L33.4153 58H32.1153V57.8C32.1153 57.8 32.1486 57.8 32.2153 57.8C32.282 57.8 32.322 57.8 32.3353 57.8C32.6153 57.8 32.8553 57.7 33.0553 57.5C33.2686 57.3 33.3753 57.0533 33.3753 56.76H33.4353ZM33.4353 47.26H33.3753C33.3753 46.9533 33.2686 46.7 33.0553 46.5C32.8553 46.3 32.6153 46.2 32.3353 46.2C32.322 46.2 32.282 46.2 32.2153 46.2C32.1486 46.2 32.1153 46.2 32.1153 46.2V46H33.4153L33.4353 47.26ZM57.3792 45.76L57.5392 48.3L51.6992 56.42C51.6992 56.42 51.6326 56.5267 51.4992 56.74C51.3659 56.94 51.2392 57.1933 51.1192 57.5C50.9992 57.8067 50.9459 58.12 50.9592 58.44H50.7992L49.6992 56.56L57.3792 45.76ZM44.7192 56.76V58H42.8192V57.8C42.8326 57.8 42.8792 57.8 42.9592 57.8C43.0392 57.8 43.0792 57.8 43.0792 57.8C43.3992 57.8 43.6792 57.7133 43.9192 57.54C44.1592 57.3533 44.3059 57.0933 44.3592 56.76H44.7192ZM45.7592 57.04C45.7459 57.1467 45.7859 57.3 45.8792 57.5C45.9859 57.7 46.1659 57.8 46.4192 57.8H46.6992V58H45.4592L45.6592 57.04H45.7592ZM45.9192 45.76H46.0592L46.9192 48.16L45.6392 58H44.1992L45.9192 45.76ZM46.0592 45.76L52.2992 53.58L50.7992 58.44L45.5192 51.86L46.0592 45.76ZM57.5592 45.76L59.3192 58H55.2592L54.4592 52.5L57.3792 45.76H57.5592ZM58.7592 56.76H59.1392C59.2059 57.0933 59.3526 57.3533 59.5792 57.54C59.8192 57.7133 60.0859 57.8 60.3792 57.8C60.3792 57.8 60.4259 57.8 60.5192 57.8C60.6126 57.8 60.6592 57.8 60.6592 57.8V58H58.7592V56.76ZM55.1192 57.04H55.2192L55.4192 58H54.1792V57.8H54.4592C54.7392 57.8 54.9192 57.7067 54.9992 57.52C55.0926 57.32 55.1326 57.16 55.1192 57.04ZM65.8495 46V58H61.9295V46H65.8495ZM61.9895 56.76V58H60.6895V57.8C60.6895 57.8 60.7229 57.8 60.7895 57.8C60.8562 57.8 60.8962 57.8 60.9095 57.8C61.1762 57.8 61.4095 57.7 61.6095 57.5C61.8229 57.3 61.9295 57.0533 61.9295 56.76H61.9895ZM65.8095 56.76H65.8495C65.8629 57.0533 65.9695 57.3 66.1695 57.5C66.3695 57.7 66.6095 57.8 66.8895 57.8C66.8895 57.8 66.9229 57.8 66.9895 57.8C67.0562 57.8 67.0962 57.8 67.1095 57.8V58H65.8095V56.76ZM65.8095 47.24V46H67.0895V46.2C67.0895 46.2 67.0562 46.2 66.9895 46.2C66.9362 46.2 66.9029 46.2 66.8895 46.2C66.6095 46.2 66.3695 46.3 66.1695 46.5C65.9695 46.6867 65.8629 46.9333 65.8495 47.24H65.8095ZM61.9895 47.24H61.9295C61.9295 46.9333 61.8229 46.6867 61.6095 46.5C61.4095 46.3 61.1762 46.2 60.9095 46.2C60.8962 46.2 60.8562 46.2 60.7895 46.2C60.7229 46.2 60.6895 46.2 60.6895 46.2V46H61.9895V47.24ZM72.8775 46V53.54C72.8775 54.7133 73.1308 55.6333 73.6375 56.3C74.1575 56.9533 74.8775 57.28 75.7975 57.28C76.7042 57.28 77.4042 56.9733 77.8975 56.36C78.3908 55.7333 78.6442 54.8667 78.6575 53.76V46H80.2375V53.54C80.2375 55.0067 79.8042 56.16 78.9375 57C78.0708 57.8267 76.8175 58.24 75.1775 58.24C73.0042 58.24 71.4242 57.8267 70.4375 57C69.4508 56.1733 68.9575 55.0333 68.9575 53.58V46H72.8775ZM68.9975 46V47.02H68.9575C68.9575 46.7667 68.8708 46.56 68.6975 46.4C68.5242 46.24 68.3175 46.16 68.0775 46.16C68.0775 46.16 68.0308 46.16 67.9375 46.16C67.8575 46.16 67.8175 46.16 67.8175 46.16V46H68.9975ZM74.0175 46V46.16C74.0175 46.16 73.9708 46.16 73.8775 46.16C73.7842 46.16 73.7375 46.16 73.7375 46.16C73.4975 46.16 73.2908 46.24 73.1175 46.4C72.9575 46.56 72.8775 46.7667 72.8775 47.02H72.8375V46H74.0175ZM78.6975 46V47.02H78.6575C78.6442 46.7667 78.5508 46.56 78.3775 46.4C78.2175 46.24 78.0175 46.16 77.7775 46.16C77.7775 46.16 77.7308 46.16 77.6375 46.16C77.5575 46.16 77.5175 46.16 77.5175 46.16V46H78.6975ZM81.3775 46V46.16C81.3775 46.16 81.3308 46.16 81.2375 46.16C81.1575 46.16 81.1175 46.16 81.1175 46.16C80.8775 46.16 80.6708 46.24 80.4975 46.4C80.3242 46.56 80.2375 46.7667 80.2375 47.02H80.1975V46H81.3775ZM95.4456 45.76L95.6056 48.3L89.7656 56.42C89.7656 56.42 89.699 56.5267 89.5656 56.74C89.4323 56.94 89.3056 57.1933 89.1856 57.5C89.0656 57.8067 89.0123 58.12 89.0256 58.44H88.8656L87.7656 56.56L95.4456 45.76ZM82.7856 56.76V58H80.8856V57.8C80.899 57.8 80.9456 57.8 81.0256 57.8C81.1056 57.8 81.1456 57.8 81.1456 57.8C81.4656 57.8 81.7456 57.7133 81.9856 57.54C82.2256 57.3533 82.3723 57.0933 82.4256 56.76H82.7856ZM83.8256 57.04C83.8123 57.1467 83.8523 57.3 83.9456 57.5C84.0523 57.7 84.2323 57.8 84.4856 57.8H84.7656V58H83.5256L83.7256 57.04H83.8256ZM83.9856 45.76H84.1256L84.9856 48.16L83.7056 58H82.2656L83.9856 45.76ZM84.1256 45.76L90.3656 53.58L88.8656 58.44L83.5856 51.86L84.1256 45.76ZM95.6256 45.76L97.3856 58H93.3256L92.5256 52.5L95.4456 45.76H95.6256ZM96.8256 56.76H97.2056C97.2723 57.0933 97.419 57.3533 97.6456 57.54C97.8856 57.7133 98.1523 57.8 98.4456 57.8C98.4456 57.8 98.4923 57.8 98.5856 57.8C98.679 57.8 98.7256 57.8 98.7256 57.8V58H96.8256V56.76ZM93.1856 57.04H93.2856L93.4856 58H92.2456V57.8H92.5256C92.8056 57.8 92.9856 57.7067 93.0656 57.52C93.159 57.32 93.199 57.16 93.1856 57.04Z" fill="#2A3053"/>
<defs>
<linearGradient id="paint0_linear_2324_2" x1="51.5" y1="0" x2="51.5" y2="103" gradientUnits="userSpaceOnUse">
<stop stop-color="#353A5E"/>
<stop offset="0.505208" stop-color="#9BBBF4"/>
<stop offset="1" stop-color="#353A5E"/>
</linearGradient>
<clipPath id="clip0_2324_2">
<rect width="79" height="79" fill="white" transform="translate(12 12)"/>
</clipPath>
</defs>
</svg>
