<svg width="17" height="17" viewBox="0 0 17 17" fill="none" xmlns="http://www.w3.org/2000/svg">
<path d="M14.4424 2.45766C12.8667 0.88335 10.7302 -0.000689597 8.50301 4.03609e-07C6.27581 0.000690404 4.13981 0.885931 2.56511 2.46117C0.990353 4.03641 0.105713 6.17247 0.105713 8.39997C0.105713 10.6275 0.990353 12.7635 2.56511 14.3388C4.13987 15.914 6.27581 16.7993 8.50301 16.7999C10.7302 16.8006 12.8668 15.9166 14.4424 14.3423C16.0162 12.7651 16.9001 10.628 16.9001 8.39988C16.9001 6.17178 16.0162 4.03458 14.4424 2.45748V2.45766ZM3.63791 3.5379C4.82831 2.34927 6.41327 1.63806 8.09261 1.53915C9.77201 1.44024 11.4295 1.96032 12.7513 3.00105L3.10121 12.6512C2.06177 11.3288 1.5425 9.67179 1.64141 7.99275C1.74044 6.3138 2.4506 4.72905 3.63806 3.53805L3.63791 3.5379ZM13.3621 13.2621L13.3622 13.2622C12.1592 14.4619 10.5553 15.1746 8.85863 15.2631C7.16198 15.3517 5.49263 14.8098 4.17113 13.7419L13.8419 4.07106C14.91 5.39223 15.4519 7.06179 15.3633 8.75856C15.2748 10.4552 14.5621 12.0592 13.3623 13.2622L13.3621 13.2621Z" fill="#D9D9D9"/>
</svg>
