<svg width="24" height="14" viewBox="0 0 24 14" fill="none" xmlns="http://www.w3.org/2000/svg">
<path d="M21.75 0.25H2.25C1.85218 0.25 1.47064 0.408035 1.18934 0.68934C0.908035 0.970644 0.75 1.35218 0.75 1.75V12.25C0.75 12.6478 0.908035 13.0294 1.18934 13.3107C1.47064 13.592 1.85218 13.75 2.25 13.75H21.75C22.1478 13.75 22.5294 13.592 22.8107 13.3107C23.092 13.0294 23.25 12.6478 23.25 12.25V1.75C23.25 1.35218 23.092 0.970644 22.8107 0.68934C22.5294 0.408035 22.1478 0.25 21.75 0.25ZM7.78125 12.25L2.25 7.4125V6.5875L7.78125 1.75H16.2188L21.75 6.5875V7.4125L16.2188 12.25H7.78125ZM21.75 4.6L18.4969 1.75H21.75V4.6ZM5.50313 1.75L2.25 4.6V1.75H5.50313ZM2.25 9.4L5.50313 12.25H2.25V9.4ZM21.75 12.25H18.4969L21.75 9.4V12.25ZM12 3.25C11.2583 3.25 10.5333 3.46993 9.91661 3.88199C9.29993 4.29404 8.81928 4.87971 8.53545 5.56494C8.25162 6.25016 8.17736 7.00416 8.32205 7.73159C8.46675 8.45902 8.8239 9.1272 9.34835 9.65165C9.8728 10.1761 10.541 10.5333 11.2684 10.6779C11.9958 10.8226 12.7498 10.7484 13.4351 10.4645C14.1203 10.1807 14.706 9.70007 15.118 9.08339C15.5301 8.4667 15.75 7.74168 15.75 7C15.75 6.00544 15.3549 5.05161 14.6517 4.34835C13.9484 3.64509 12.9946 3.25 12 3.25ZM12 9.25C11.555 9.25 11.12 9.11804 10.75 8.87081C10.38 8.62357 10.0916 8.27217 9.92127 7.86104C9.75097 7.4499 9.70642 6.9975 9.79323 6.56105C9.88005 6.12459 10.0943 5.72368 10.409 5.40901C10.7237 5.09434 11.1246 4.88005 11.561 4.79323C11.9975 4.70642 12.4499 4.75097 12.861 4.92127C13.2722 5.09157 13.6236 5.37996 13.8708 5.74997C14.118 6.11998 14.25 6.55499 14.25 7C14.2475 7.59598 14.0097 8.16684 13.5883 8.58826C13.1668 9.00969 12.596 9.24753 12 9.25Z" fill="#FFB636"/>
</svg>
