<svg width="19" height="17" viewBox="0 0 19 17" fill="none" xmlns="http://www.w3.org/2000/svg">
<path d="M9.5875 14.2312L9.5 14.3187L9.40375 14.2312C5.2475 10.46 2.5 7.96625 2.5 5.4375C2.5 3.6875 3.8125 2.375 5.5625 2.375C6.91 2.375 8.2225 3.25 8.68625 4.44H10.3138C10.7775 3.25 12.09 2.375 13.4375 2.375C15.1875 2.375 16.5 3.6875 16.5 5.4375C16.5 7.96625 13.7525 10.46 9.5875 14.2312ZM13.4375 0.625C11.915 0.625 10.4537 1.33375 9.5 2.445C8.54625 1.33375 7.085 0.625 5.5625 0.625C2.8675 0.625 0.75 2.73375 0.75 5.4375C0.75 8.73625 3.725 11.44 8.23125 15.5262L9.5 16.6812L10.7688 15.5262C15.275 11.44 18.25 8.73625 18.25 5.4375C18.25 2.73375 16.1325 0.625 13.4375 0.625Z" fill="#4926E8"/>
</svg>
